<ttFont>
          <CharString index="0">
            -117 -74.02000427246094 -113.99000549316406 -108.00999450683594 -94 hhcurveto
            -63 -39 28.020004272460938 86 47.97999572753906 10 94 13 94 hvcurveto
            11 -8 callgsubr
            53 395 14.990005493164062 112 rrcurveto
            -274 hlineto
            -17 -110.02000427246094 -54 -394 -12 43 callsubr
            -15 -113.00999450683594 -14 -111 1 -69 rrcurveto
            -200.99000549316406 1 109 -72 161.02000427246094 hhcurveto
            158 135.99000549316406 103.99000549316406 121 87 hvcurveto
            return
          </CharString>
          <CharString index="1">
            -74 callgsubr
            60 callsubr
            166 callsubr
            521 -4 hvcurveto
            334 -98 callgsubr
            -171 278 -343 325 callgsubr
            -526 5.0200042724609375 hvcurveto
            962.9900054931641 315 rmoveto
            -55 callgsubr
            -176 -87 120.02000427246094 309 -4 hvcurveto
            -83 callgsubr
            endchar
          </CharString>
          <CharString index="2">
            22 rlineto
            21.009994506835938 -64 -113.99000549316406 35 -187 hhcurveto
            -434.00999450683594 -344.99000549316406 -375.00999450683594 -554 6 hvcurveto
            -304.99000549316406 -82 callsubr
            144.02000427246094 -327.97999572753906 405 hhcurveto
            171.99000549316406 146 44.99000549316406 29.990005493164062 104 hvcurveto
            55 16.020004272460938 35 7.9900054931640625 32.99000549316406 4.0200042724609375 94 703 rcurveline
            -501 hlineto
            13 callgsubr
            -220 rlineto
            return
          </CharString>
          <CharString index="3">
            -35 -208 -66.00999450683594 -141 -93 -148 -94.99000549316406 -129 rcurveline
            -12 207 -61 723 rlineto
            -278 hlineto
            34 -274 -40 -206 -74 callsubr
            -177 -27 callgsubr
            -140.97999572753906 rlinecurve
            -97.02000427246094 -132.02000427246094 -11 207 -65 723 rlineto
            -290 hlineto
            109.02000427246094 -783.0099945068359 56 -375.99000549316406 71 callgsubr
            12 86.02000427246094 102.99000549316406 102.99000549316406 105 85 130 -50 callsubr
            133 rlinecurve
            12.990005493164062 -107 -5 callsubr
            -375.99000549316406 216.99000549316406 12 86.02000427246094 100 261 249 0 callgsubr
            327 12 333.99000549316406 rlinecurve
            return
          </CharString>
          <CharString index="4">
            -63 callgsubr
            945.9900054931641 hlineto
            25.009994506835938 14 callgsubr
            -666.0099945068359 -13 5 callsubr
            474.00999450683594 431.99000549316406 -12 24 221 -427.99000549316406 -6 57 432 572.0099945068359 -5 22 216 rlineto
            -841.0099945068359 hlineto
            endchar
          </CharString>
          <CharString index="5">
            -18 40.97999572753906 136 -22 93 hhcurveto
            240 289 -25 callgsubr
            354 51 hvcurveto
            167.02000427246094 1217 -152 -39 rlineto
            -217 -631 rmoveto
            7 callgsubr
            -57 -114 -179 -121.02000427246094 hhcurveto
            -91 callsubr
            41 39.02000427246094 -4 89 callgsubr
            34 hvcurveto
            -66 -480.99000549316406 rlineto
            endchar
          </CharString>
          <CharString index="6">
            rmoveto
            -47 -226 rlineto
            -30 37 143 -33.970001220703125 133 hhcurveto
            233 201 93.97999572753906 235 151 -93 85 -118.00999450683594 94 hvcurveto
            -96.00999450683594 81 -64 38 87 vvcurveto
            43 callgsubr
            63 39.02000427246094 -42 callsubr
            115 88 -55 -27 24 vhcurveto
            hintmask 10111000
            37.99000549316406 240.99000549316406 rlineto
            hintmask 11011000
            13 -24 callsubr
            -112 25 -119.00999450683594 hhcurveto
            -240.99000549316406 -180 -117 -205 -155 83 -84.00999450683594 -25 callgsubr
            -82 hvcurveto
            97 -82 88 -52 -83.99000549316406 vvcurveto
            -74 callsubr
            -79.99000549316406 -23 -87 25 callsubr
            vhcurveto
            endchar
          </CharString>
          <CharString index="7">
            -73 callgsubr
            43 callgsubr
            80 95 3 hvcurveto
            76 2 -60 64 -92 hhcurveto
            239 callgsubr
            -41 -355.99000549316406 -92 callgsubr
            endchar
          </CharString>
          <CharString index="8">
            327 hintmask 11001100
            883 79 callsubr
            5 callsubr
            -77 callgsubr
            hintmask 11010100
            123 callsubr
            18 -16 callgsubr
            rrcurveto
            hintmask 11001100
            56 75 callsubr
            -257 -163 -178 -258 -35.99000549316406 hvcurveto
            108 callgsubr
            56 callsubr
            return
          </CharString>
          <CharString index="9">
            2.9900054931640625 return
          </CharString>
          <CharString index="10">
            240 hlineto
            -46 -322 rlineto
            -38 -77 -115 -16 -69.02000427246094 hhcurveto
            -226 -88 199 245 132 callsubr
            295 -2 124.99000549316406 389 364.00999450683594 hhcurveto
            return
          </CharString>
          <CharString index="11">
            rmoveto
            -74 -42 81 175.99000549316406 239 109 304 246 41 40 -4 -10.009994506835938 35 hvcurveto
            -68 -479.99000549316406 rlineto
            -126 -55 -111 -180 -121 hhcurveto
            endchar
          </CharString>
          <CharString index="12">
            -15.990005493164062 return
          </CharString>
          <CharString index="13">
            hhcurveto
            -459.02000427246094 -215.97999572753906 -401 -341.02000427246094 -245 91 -184.97000122070312 232 return
          </CharString>
          <CharString index="14">
            rmoveto
            276.99000549316406 1 -257 1530 rlineto
            -333.99000549316406 hlineto
            hintmask 10101110
            -73 callsubr
            hintmask 01101110
            48 -341.99000549316406 rlineto
            -523 537.9900054931641 rmoveto
            hintmask 01110110
            -79 callsubr
            hintmask 01101110
            -448 hlineto
            endchar
          </CharString>
          <CharString index="15">
            -205.99000549316406 -1530 rlineto
            return
          </CharString>
          <CharString index="16">
            -74 -42 79.00999450683594 175.99000549316406 239 114.02000427246094 304 245.99000549316406 return
          </CharString>
          <CharString index="17">
            6 -37.99000549316406 -39 3.9900054931640625 -35 -94 callsubr
            166 122 129.97999572753906 116 64.99000549316406 hvcurveto
            return
          </CharString>
          <CharString index="18">
            rmoveto
            -151 -29 113 109 3 hvcurveto
            281.00999450683594 50 358.99000549316406 314 callgsubr
            -97.00999450683594 105 -214 -104 157 callsubr
            -25 -47 -83 vhcurveto
            55 -89 -91 17 -95 hhcurveto
            -477 -217.99000549316406 -401 -341.02000427246094 -245 76 -184.97000122070312 232 219 callsubr
            160 callgsubr
            155.97000122070312 137 65 hvcurveto
            -164 45 123 -128.97999572753906 226 hhcurveto
            227 50 callgsubr
            135.97999572753906 82 58 hvcurveto
            -73 263 callsubr
            -132 -75 107 callgsubr
            65 callgsubr
            -558 -514.9900054931641 rmoveto
            hintmask 01111000
            -132 -58 -92.02000427246094 -146 -91 hhcurveto
            -74 -32 70 175.99000549316406 239 117 304 263 44.99000549316406 50.02000427246094 158 callgsubr
            168 callgsubr
            46 hvcurveto
            hintmask 10111000
            -103.02000427246094 -119.99000549316406 -63 154 callgsubr
            -17 callgsubr
            -194.99000549316406 rrcurveto
            endchar
          </CharString>
          <CharString index="19">
            151 callgsubr
            -178.99000549316406 hhcurveto
            -17 callgsubr
            -4 callgsubr
            112 callsubr
            58.02000427246094 -16 43 callgsubr
            hhcurveto
            232 195.99000549316406 190 332.97999572753906 45.02000427246094 hvcurveto
            156 299 callsubr
            return
          </CharString>
          <CharString index="20">
            -98 callsubr
            hvcurveto
            return
          </CharString>
          <CharString index="21">
            rmoveto
            hintmask 01100100
            -67 callsubr
            hintmask 10100100
            -59 callsubr
            hintmask 01010100
            -33 callgsubr
            hhcurveto
            1081 -1216 rmoveto
            hintmask 01001100
            143 callgsubr
            hintmask 01100100
            -50 callgsubr
            -777 -1114.009994506836 28 229 callsubr
            1001.9799957275391 hlineto
            37 230.99000549316406 -685 -11 rlineto
            hintmask 01010100
            104 110 rlineto
            hintmask 10010100
            -1267 -141 -89 callgsubr
            endchar
          </CharString>
          <CharString index="22">
            rlineto
            271.02000427246094 hlineto
            98 713.9900054931641 rlineto
            120 80 131 109 callsubr
            92 hhcurveto
            59 35.99000549316406 -33 callsubr
            -1.9900054931640625 29 callgsubr
            -22.020004272460938 -165 -29 -193 129 callsubr
            -153.99000549316406 288 callgsubr
            198 24 169.99000549316406 rrcurveto
            22 160 18 133 54 vvcurveto
            216 -74 callsubr
            80 -159.99000549316406 vhcurveto
            endchar
          </CharString>
          <CharString index="23">
            43 1446.0299987792969 -103 callgsubr
            return
          </CharString>
          <CharString index="24">
            -230 508.97999572753906 171 778.010009765625 62 callsubr
            hstemhm
            676.9799957275391 271.00999450683594 -253.00999450683594 259.99000549316406 hintmask 11010000
            220 callsubr
            734.9900054931641 rmoveto
            -30 -149 rlineto
            -49 77 147 -28 52 callgsubr
            hhcurveto
            259.00999450683594 247.99000549316406 128 240 4 hvcurveto
            2 97 -45 133 -189 130 callgsubr
            rrcurveto
            hintmask 11100000
            135 51 88 104 2 142 rrcurveto
            105 -82 callsubr
            -85 121 -237 hhcurveto
            -144.02000427246094 208 callgsubr
            -42 -59 callgsubr
            -114.02000427246094 hvcurveto
            61 -146 62 121 callgsubr
            82 37 104 1 rlinecurve
            101 1 39 -50.02000427246094 55 callgsubr
            vvcurveto
            -113.00999450683594 -118 -57 108 callsubr
            -41 vhcurveto
            -28 108 callsubr
            rlineto
            hintmask 11010000
            198.99000549316406 47 85.00999450683594 -3 60 -47 -3 -83 rlinecurve
            -2 -145 -158.99000549316406 -53 -133 -47 callsubr
            -5 callgsubr
            -2 -104 22 -63 35 rrcurveto
            endchar
          </CharString>
          <CharString index="25">
            1.9900054931640625 return
          </CharString>
          <CharString index="26">
            -78 callgsubr
            99 callgsubr
            hlineto
            -71 callsubr
            return
          </CharString>
          <CharString index="27">
            -151 -29 113 109 118 callsubr
            280.97999572753906 50 359.02000427246094 130 316 vvcurveto
            return
          </CharString>
          <CharString index="28">
            294.99000549316406 679.0200042724609 47 121 9.990005493164062 -118 96.02000427246094 -682 rlineto
            return
          </CharString>
          <CharString index="29">
            -954 rlineto
            272 hlineto
            -82 callsubr
            63 463.00999450683594 -50 callsubr
            489 vhcurveto
            203 232 callsubr
            186 rlineto
            4 callsubr
            hlineto
            return
          </CharString>
          <CharString index="30">
            216.49000549316406 461.5 212 426.5 213.5 return
          </CharString>
          <CharString index="31">
            63 callsubr
            78 122 71 callsubr
            87 256 callsubr
            -1 -67 callgsubr
            -22 -165 -29 -191 -21.009994506835938 -154 rrcurveto
            276 254 callgsubr
            13 93 12 83 7 64 rrcurveto
            206 callgsubr
            75.97999572753906 104.02000427246094 75.97999572753906 186 callgsubr
            hhcurveto
            59 36 -19.990005493164062 -90.00999450683594 -2 29 callgsubr
            -23 -165 -28 -191 -21.020004272460938 -154 rrcurveto
            276.00999450683594 hlineto
            21 163 callsubr
            -88 80 -157 vhcurveto
            endchar
          </CharString>
          <CharString index="32">
            66.99000549316406 return
          </CharString>
          <CharString index="33">
            -90.00999450683594 return
          </CharString>
          <CharString index="34">
            -743.9900054931641 -1531 300.99000549316406 1 148 97 callsubr
            rlineto
            560.9900054931641 hlineto
            return
          </CharString>
          <CharString index="35">
            hintmask 10101000
            18 216 rlineto
            99 callgsubr
            hlineto
            -156 -1140 -40 callgsubr
            hintmask 11001000
            95.00999450683594 687.9799957275391 rlineto
            124.00999450683594 73.99000549316406 105 66 87 hhcurveto
            41 41 -6 -14.009994506835938 17 hvcurveto
            hintmask 10011000
            54 285 rlineto
            hintmask 11001000
            9.020004272460938 -11 13 callgsubr
            3.9900054931640625 184 callsubr
            hhcurveto
            return
          </CharString>
          <CharString index="36">
            -61 callsubr
            -257 hlineto
            return
          </CharString>
          <CharString index="37">
            101 -95 callsubr
            215.97999572753906 1289.0400085449219 -103 callgsubr
            return
          </CharString>
          <CharString index="38">
            0 43 910.9900054931641 62 callsubr
            213.00999450683594 315 -177.010009765625 57 callgsubr
            return
          </CharString>
          <CharString index="39">
            rmoveto
            hintmask 01100110
            -67 callsubr
            hintmask 10101010
            -59 callsubr
            hintmask 01101010
            -33 callgsubr
            hhcurveto
            hintmask 10011010
            -186 -1357 -89 callgsubr
            return
          </CharString>
          <CharString index="40">
            -95 -173 -16 -88 hhcurveto
            7 callgsubr
            93 callsubr
            123 hlineto
            59 87 -5 -4 57 hvcurveto
            return
          </CharString>
          <CharString index="41">
            284.99000549316406 return
          </CharString>
          <CharString index="42">
            rmoveto
            -256 hlineto
            -47 callsubr
            -47 0 -49 138 callsubr
            -52 -22 99 callgsubr
            -43 -178 -10 callgsubr
            -210 return
          </CharString>
          <CharString index="43">
            -44 callgsubr
            109 callgsubr
            hhcurveto
            return
          </CharString>
          <CharString index="44">
            -376 -51 callgsubr
            777.0000152587891 209 callgsubr
            -40.95001220703125 -6 callgsubr
            135 callsubr
            97 callgsubr
            104.99998474121094 266.00999450683594 hintmask 11011000
            return
          </CharString>
          <CharString index="45">
            rmoveto
            -221.99000549316406 -1634 -40 callgsubr
            223 1634 rlineto
            -277.00999450683594 hlineto
            return
          </CharString>
          <CharString index="46">
            -110 -906.0200042724609 -16 -253.99000549316406 -71 233 -398.00999450683594 927 rlineto
            return
          </CharString>
          <CharString index="47">
            -94 -95 callsubr
            195.99000549316406 -180 43 936.9799957275391 176 return
          </CharString>
          <CharString index="48">
            -4.0099945068359375 -86 callgsubr
            return
          </CharString>
          <CharString index="49">
            hintmask 11001100
            97 callgsubr
            954 rmoveto
            -130 -954 rlineto
            272.02000427246094 hlineto
            -82 callsubr
            63 -77 callgsubr
            hintmask 11010100
            7 callsubr
            hintmask 11001100
            56 199 rlineto
            hintmask 11010100
            19 callsubr
            hintmask 11001100
            130 hlineto
            return
          </CharString>
          <CharString index="50">
            85 -95 callsubr
            208.97999572753906 1141.990005493164 211 return
          </CharString>
          <CharString index="51">
            -163 -178 -258 -36 hvcurveto
            -16 -99.99000549316406 rlineto
            return
          </CharString>
          <CharString index="52">
            205 callgsubr
            138 callgsubr
            rmoveto
            -214 -1635.979995727539 rlineto
            272 hlineto
            214.02000427246094 138 callgsubr
            313 callgsubr
            754.0099945068359 -723.9900054931641 rmoveto
            46 61 callgsubr
            31 71 6.9900054931640625 85.00999450683594 rrcurveto
            175 callgsubr
            -29 -74 callsubr
            -40 -69 -51.02000427246094 -70 -53 callgsubr
            -123 -81 -90.99000549316406 107 callgsubr
            -64 rrcurveto
            2 hlineto
            -2 -1 301 -630 rlineto
            318.00999450683594 hlineto
            -344 610 93 48 128 275 callsubr
            82 143.99000549316406 rlinecurve
            return
          </CharString>
          <CharString index="53">
            -92 callsubr
            262 hlineto
            120 183 callgsubr
            12 287 76 -254 return
          </CharString>
          <CharString index="54">
            hintmask 11011000
            884 954 rmoveto
            -130 -78 callsubr
            hintmask 11101000
            123 callsubr
            17.979995727539062 58 callsubr
            hintmask 11011000
            56 305 callsubr
            -257 -56 callsubr
            -122 hlineto
            -34 -186 rlineto
            hintmask 11011000
            130 hlineto
            return
          </CharString>
          <CharString index="55">
            -227 -51 callgsubr
            801.9900054931641 172 return
          </CharString>
          <CharString index="56">
            hlineto
            131 callgsubr
            77 callsubr
            612.9900054931641 rlineto
            63 117 -1 0 hvcurveto
            62 267 callgsubr
            -127 48.99000549316406 -176 rrcurveto
            return
          </CharString>
          <CharString index="57">
            67.00999450683594 return
          </CharString>
          <CharString index="58">
            275.99000549316406 hlineto
            return
          </CharString>
          <CharString index="59">
            -60 callgsubr
            18 58 callsubr
            return
          </CharString>
          <CharString index="60">
            -0.9900054931640625 return
          </CharString>
          <CharString index="61">
            -658 -87 callgsubr
            4 callgsubr
            190 callgsubr
            209 callsubr
            266 callgsubr
            190 callgsubr
            -35 callsubr
            -82 callsubr
            -57 147 callsubr
            -3 hvcurveto
            -17 callgsubr
            -267 -93 callgsubr
            endchar
          </CharString>
          <CharString index="62">
            0 3 -53 hvcurveto
            -32 callsubr
            504 rlineto
            6 34 87 7 52 hhcurveto
            164 88 -55 51 callgsubr
            5 hvcurveto
            -166.02000427246094 5 -80 -168 -214.02000427246094 hhcurveto
            return
          </CharString>
          <CharString index="63">
            -276.00999450683594 return
          </CharString>
          <CharString index="64">
            -1151.020004272461 -485 rmoveto
            -200 103.02000427246094 309 callgsubr
            239.99000549316406 238 190.02000427246094 -5 callgsubr
            129 -215 -258.99000549316406 -189 -230 -231 vhcurveto
            541 124 rmoveto
            -109.02000427246094 -60.99000549316406 -186 -143 -87.99000549316406 -51.02000427246094 168 callsubr
            106.99000549316406 112 70 176 144.02000427246094 81.99000549316406 47 222 callgsubr
            218 callgsubr
            vhcurveto
            return
          </CharString>
          <CharString index="65">
            96.00999450683594 return
          </CharString>
          <CharString index="66">
            -46 callgsubr
            -150.99000549316406 43 47.010009765625 173 callgsubr
            return
          </CharString>
          <CharString index="67">
            20.009994506835938 return
          </CharString>
          <CharString index="68">
            -4.0099945068359375 46 callgsubr
            17.020004272460938 150.02000427246094 1111.990005493164 rcurveline
            9.009994506835938 40 79 7 47 hhcurveto
            251 106 -98 -323.00999450683594 2.9900054931640625 hvcurveto
            3 195 callgsubr
          </CharString>
          <CharString index="69">
            22 callgsubr
            -3 -60 callgsubr
            rlineto
            return
          </CharString>
          <CharString index="70">
            -93 callgsubr
            639 hmoveto
            -56 -435.02000427246094 -58.99000549316406 -617.9900054931641 -83 -391 -4 callgsubr
            51 callgsubr
            -19 callsubr
            -141 -165 -47 39 -102.99000549316406 rcurveline
            220.02000427246094 17 216.99000549316406 87 86 306.99000549316406 29 97 89.00999450683594 682 87 676 rrcurveto
            -276.99000549316406 hlineto
            endchar
          </CharString>
          <CharString index="71">
            -79.00999450683594 return
          </CharString>
          <CharString index="72">
            1797 rmoveto
            -78.00999450683594 -1.9900054931640625 36 callsubr
            return
          </CharString>
          <CharString index="73">
            80 callsubr
            677.989990234375 -66 callsubr
            return
          </CharString>
          <CharString index="74">
            -29 callgsubr
            -74 callsubr
            return
          </CharString>
          <CharString index="75">
            68.02000427246094 return
          </CharString>
          <CharString index="76">
            1923.990005493164 rmoveto
            227 -317.00999450683594 rlineto
            return
          </CharString>
          <CharString index="77">
            112.99000549316406 return
          </CharString>
          <CharString index="78">
            276.00999450683594 return
          </CharString>
          <CharString index="79">
            111 71 80 95 9 callgsubr
            return
          </CharString>
          <CharString index="80">
            0 43 910.9900054931641 62 callsubr
            350.99998474121094 -12 callsubr
            return
          </CharString>
          <CharString index="81">
            412 -19 43 1075.0299987792969 -103 callgsubr
            hstem
            837.4799957275391 255.50999450683594 326.00001525878906 257.97999572753906 vstem
            return
          </CharString>
          <CharString index="82">
            72.99000549316406 return
          </CharString>
          <CharString index="83">
            -30.990005493164062 return
          </CharString>
          <CharString index="84">
            -1220.009994506836 rmoveto
            -227 -9 34 265 -234.99000549316406 -23 -35 -251 -318 -12 -25 callsubr
            89 468.00999450683594 639 -173.02000427246094 104 -58 -47 callsubr
            -577.9900054931641 -888.0099945068359 48.99000549316406 -112 rlineto
            512 hlineto
            -44 -317.9700012207031 rlineto
            240 hlineto
            40.97999572753906 317.9700012207031 rlineto
            229 hlineto
            22 199 rlineto
            endchar
          </CharString>
          <CharString index="85">
            1797 rmoveto
            -9 callgsubr
            -2 64 -65 82 hhcurveto
            110 return
          </CharString>
          <CharString index="86">
            142 callsubr
            286 callgsubr
            140 callsubr
            -74 -77 -93 -1 hvcurveto
            return
          </CharString>
          <CharString index="87">
            -46 callgsubr
            -56.00001525878906 -46 callgsubr
            -194.94000244140625 -6 callgsubr
            return
          </CharString>
          <CharString index="88">
            -100.99000549316406 return
          </CharString>
          <CharString index="89">
            20 callgsubr
            -92.02000427246094 hhcurveto
            -98 return
          </CharString>
          <CharString index="90">
            312.99000549316406 return
          </CharString>
          <CharString index="91">
            106 0 228.99000549316406 hstem
            -43.99000549316406 1365.9700012207031 vstem
            721 1507.979995727539 rmoveto
            276 callgsubr
            -1485.990005493164 11.979995727539062 -22 rlineto
            1337 hlineto
            17 6 callgsubr
            -569 1480.990005493164 rlineto
            206 callsubr
            hlineto
            97 callgsubr
            -1279 rmoveto
            -642 hlineto
            369.00999450683594 756 273 -756 rlineto
            endchar
          </CharString>
          <CharString index="92">
            1664.979995727539 rmoveto
            -39 callgsubr
            return
          </CharString>
          <CharString index="93">
            283 callgsubr
            -167.02000427246094 22 callsubr
            53 callgsubr
            return
          </CharString>
          <CharString index="94">
            930.9700012207031 9 callsubr
            return
          </CharString>
          <CharString index="95">
            184.99000549316406 -25.979995727539062 43 return
          </CharString>
          <CharString index="96">
            130 59 64.99000549316406 return
          </CharString>
          <CharString index="97">
            -54.99000549316406 return
          </CharString>
          <CharString index="98">
            19.990005493164062 return
          </CharString>
          <CharString index="99">
            hstem
            847.9900054931641 268 callsubr
            883 103 callgsubr
            -160.02000427246094 -151 90 callsubr
            -135.99000549316406 266 callsubr
            34 198 return
          </CharString>
          <CharString index="100">
            -53 callgsubr
            -92.02000427246094 return
          </CharString>
          <CharString index="101">
            -281 590.9900054931641 1054 hstem
            279.97999572753906 534.9900054931641 vstem
            535.9799957275391 260 callgsubr
            140.99000549316406 1032.990005493164 -118.99000549316406 21.009994506835938 -51 -41 -225.02000427246094 -103 -140 -35 rlinecurve
            240 callsubr
            -140 245.99000549316406 52 rlineto
            endchar
          </CharString>
          <CharString index="102">
            57.02000427246094 return
          </CharString>
          <CharString index="103">
            rmoveto
            51 -18 40.02000427246094 -75 -88 vvcurveto
            -110 137 callgsubr
            -109 -96.99000549316406 -49 233 callsubr
            -21 129 callgsubr
            217 callsubr
            rlineto
            198 184 callgsubr
            129 186 222 vvcurveto
            52 callgsubr
            -43 156 -152.99000549316406 58 vhcurveto
            -131.02000427246094 -157.99000549316406 -7 -54 rlineto
            endchar
          </CharString>
          <CharString index="104">
            43 -42 43 569.9799957275391 213.99000549316406 520.0200042724609 199 93 callgsubr
            return
          </CharString>
          <CharString index="105">
            -8 callgsubr
            -60 rlineto
            -23 callgsubr
            30 callgsubr
            return
          </CharString>
          <CharString index="106">
            -93 -42 callsubr
            94 callgsubr
            return
          </CharString>
          <CharString index="107">
            -59.99000549316406 return
          </CharString>
          <CharString index="108">
            278 callsubr
            rmoveto
            237 callsubr
            -3 callgsubr
            rlineto
            return
          </CharString>
          <CharString index="109">
            127 callgsubr
            -10 callsubr
            -75 callsubr
            -5 callgsubr
            178 callgsubr
            -30 callgsubr
            447 hmoveto
            233 callgsubr
            61 -70 -25 callsubr
            hhcurveto
            105 64 81 94 142 callgsubr
            55 callgsubr
            94 callsubr
            return
          </CharString>
          <CharString index="110">
            -113.99000549316406 -133 hhcurveto
            -122 -25 72 74 -17 callgsubr
            hvcurveto
            -1 128 callsubr
            294 callgsubr
            return
          </CharString>
          <CharString index="111">
            -199.99000549316406 return
          </CharString>
          <CharString index="112">
            63.02000427246094 return
          </CharString>
          <CharString index="113">
            -42.99000549316406 return
          </CharString>
          <CharString index="114">
            24 155 -40 callsubr
            -11 callsubr
            247 callsubr
            1 rlinecurve
            63 230 callsubr
            -48 callsubr
            return
          </CharString>
          <CharString index="115">
            -355.99000549316406 rmoveto
            28 callsubr
            return
          </CharString>
          <CharString index="116">
            225 -56.94000244140625 -103 callgsubr
            return
          </CharString>
          <CharString index="117">
            374 rlineto
            -179 hlineto
            -349 -374 return
          </CharString>
          <CharString index="118">
            -95 callsubr
            204.97999572753906 -188.989990234375 return
          </CharString>
          <CharString index="119">
            178.99000549316406 return
          </CharString>
          <CharString index="120">
            84.00999450683594 return
          </CharString>
          <CharString index="121">
            176 -19 callsubr
            122 -81 40 vhcurveto
            -157 -136 -5.0200042724609375 -41 rlineto
            48 6 callsubr
            29 188 callgsubr
            44 callgsubr
            vvcurveto
            -160 -90.99000549316406 228 callgsubr
            -126 rlineto
            134 110 callgsubr
            0 callgsubr
            168 283.00999450683594 vvcurveto
            return
          </CharString>
          <CharString index="122">
            rmoveto
            -91 -675 rlineto
            -567.9900054931641 hlineto
            -23 callgsubr
            675 rlineto
            -276.00999450683594 hlineto
            250 callgsubr
            657.9799957275391 rlineto
            568.0099945068359 hlineto
            -89 -657.9799957275391 rlineto
            278 hlineto
            206 1530 rlineto
            -278.02000427246094 hlineto
            endchar
          </CharString>
          <CharString index="123">
            -21 -135 267 -27.020004272460938 -766.9900054931641 -1367.979995727539 rlineto
            303 hlineto
            188.99000549316406 355.97999572753906 rlineto
            475.00999450683594 hlineto
            -48 -355.97999572753906 rlineto
            945.0099945068359 hlineto
            167 callsubr
            14 callgsubr
            -667 -13 64 474.00999450683594 return
          </CharString>
          <CharString index="124">
            0 225.50999450683594 1084.4700012207031 220.00999450683594 -86.00999450683594 86.00999450683594 return
          </CharString>
          <CharString index="125">
            -95 callsubr
            14 callgsubr
            1106.990005493164 231.99000549316406 return
          </CharString>
          <CharString index="126">
            22 -51 -60 4 -53 hhcurveto
            -256.97999572753906 -56 callsubr
            -122.02000427246094 222 callsubr
            return
          </CharString>
          <CharString index="127">
            6 callgsubr
            -58 -109.02000427246094 13 63 callgsubr
            hhcurveto
            endchar
          </CharString>
          <CharString index="128">
            -36 callsubr
            -93 -2 hvcurveto
            -44 callgsubr
            return
          </CharString>
          <CharString index="129">
            157 -276.99000549316406 89 callsubr
            return
          </CharString>
          <CharString index="130">
            -95 callsubr
            180.97999572753906 return
          </CharString>
          <CharString index="131">
            1257 11 callsubr
            225.50999450683594 1084.4700012207031 220.00999450683594 -186.99998474121094 -46 callgsubr
            -102.00001525878906 86.00999450683594 309 callsubr
            return
          </CharString>
          <CharString index="132">
            -107.00999450683594 -119.99000549316406 59 33 -40 return
          </CharString>
          <CharString index="133">
            -349 -346.00999450683594 rlineto
            return
          </CharString>
          <CharString index="134">
            48 -181 hhcurveto
            -296 -205.99000549316406 -164 -269 106 callsubr
            -204 146 -135 91 callgsubr
            -97 155.02000427246094 -109 48.99000549316406 -71 -1 -100 rrcurveto
            98 callsubr
            -47 callsubr
            -105 -64 return
          </CharString>
          <CharString index="135">
            -156 192 callgsubr
            return
          </CharString>
          <CharString index="136">
            -24.990005493164062 -16 callgsubr
            vvcurveto
            return
          </CharString>
          <CharString index="137">
            -520.9900054931641 50 callgsubr
            return
          </CharString>
          <CharString index="138">
            892 -51 callgsubr
            -181.989990234375 70 callgsubr
            -160.010009765625 176 -63.989990234375 48 -34.96000671386719 299 callgsubr
            hintmask 01100010
            return
          </CharString>
          <CharString index="139">
            -79 callgsubr
            endchar
          </CharString>
          <CharString index="140">
            115 167.02000427246094 vvcurveto
            return
          </CharString>
          <CharString index="141">
            -30 106 -57 88 callsubr
            -54 49 rrcurveto
            -227 167 rmoveto
            205 callsubr
            return
          </CharString>
          <CharString index="142">
            hintmask 01100010
            -41 48 rlineto
            -773 hlineto
            -29 -211 rlineto
            488 hlineto
            -111 -104 -566.9900054931641 -773 46.99000549316406 242 callgsubr
            243 callsubr
            250 callsubr
            return
          </CharString>
          <CharString index="143">
            64 -65 82 hhcurveto
            110 45 callsubr
            return
          </CharString>
          <CharString index="144">
            -50 callsubr
            -86 hhcurveto
            return
          </CharString>
          <CharString index="145">
            -206 -1530 rlineto
            return
          </CharString>
          <CharString index="146">
            162 callsubr
            hintmask 11001100
            return
          </CharString>
          <CharString index="147">
            -11 callsubr
            83 1 rlinecurve
            63 1 return
          </CharString>
          <CharString index="148">
            -98 -77 -36 callsubr
            -93 return
          </CharString>
          <CharString index="149">
            -75 callsubr
            489 vhcurveto
            return
          </CharString>
          <CharString index="150">
            -89.99000549316406 return
          </CharString>
          <CharString index="151">
            rmoveto
            250 callgsubr
            659.9900054931641 454 -12 24 230 -449 -7 59 449 549.0099945068359 -6 28 216 rlineto
            -824.0099945068359 hlineto
            endchar
          </CharString>
          <CharString index="152">
            152 callgsubr
            94 3 hvcurveto
            75 return
          </CharString>
          <CharString index="153">
            -632.0200042724609 rmoveto
            -27 callgsubr
            -51 168 callsubr
            106 -30 callsubr
            70 175 145 82 46.97999572753906 270 callsubr
            -106 -109 -62 -186.02000427246094 -142 hvcurveto
            return
          </CharString>
          <CharString index="154">
            197 callgsubr
            36 81 callgsubr
            return
          </CharString>
          <CharString index="155">
            -40 309 -1.9799957275390625 rcurveline
            -39.02000427246094 154 callsubr
            return
          </CharString>
          <CharString index="156">
            -169 77 callsubr
            -145 228 return
          </CharString>
          <CharString index="157">
            130.99000549316406 return
          </CharString>
          <CharString index="158">
            -72.99000549316406 return
          </CharString>
          <CharString index="159">
            308 callsubr
            208 callsubr
            98.02000427246094 98 182 callgsubr
            hvcurveto
            155 callsubr
            181 callgsubr
            -39.02000427246094 -60 44 callgsubr
            hhcurveto
            return
          </CharString>
          <CharString index="160">
            174 callgsubr
            -12 -179 180 callgsubr
            13 179 rlineto
            -543.9900054931641 hlineto
            return
          </CharString>
          <CharString index="161">
            2 63 -1 50.02000427246094 -3 30 rrcurveto
            endchar
          </CharString>
          <CharString index="162">
            177.99000549316406 return
          </CharString>
          <CharString index="163">
            256 callgsubr
            130 hlineto
            return
          </CharString>
          <CharString index="164">
            -53 callgsubr
            311 callgsubr
            return
          </CharString>
          <CharString index="165">
            -16 callgsubr
            rrcurveto
            return
          </CharString>
          <CharString index="166">
            321 callsubr
            rmoveto
            170 callsubr
            -116.02000427246094 -83 307 callsubr
            return
          </CharString>
          <CharString index="167">
            444.99000549316406 285 return
          </CharString>
          <CharString index="168">
            182.99000549316406 return
          </CharString>
          <CharString index="169">
            185.99000549316406 return
          </CharString>
          <CharString index="170">
            119.00999450683594 return
          </CharString>
          <CharString index="171">
            66.99000549316406 -86 178 callgsubr
            -2 hvcurveto
            447 hmoveto
            153 callsubr
            69 callgsubr
            return
          </CharString>
          <CharString index="172">
            -31 callsubr
            178 hlineto
            37 callgsubr
            273 callsubr
            77 -299.99000549316406 -206 -217 201 callsubr
            return
          </CharString>
          <CharString index="173">
            hmoveto
            -74 -1 60 -69 232 callgsubr
            142 callsubr
            142 callgsubr
            55 callgsubr
            140 callsubr
            -74 -77 -93 -1 hvcurveto
            return
          </CharString>
          <CharString index="174">
            6 callgsubr
            175 -621 388 -74 callsubr
            208 callgsubr
            389 -326 -470 -331.02000427246094 48 -159.99000549316406 717 396 rlineto
            endchar
          </CharString>
          <CharString index="175">
            1241.990005493164 rmoveto
            312 callsubr
            -294.00999450683594 -217 -233 217 return
          </CharString>
          <CharString index="176">
            1574.990005493164 rmoveto
            295 callgsubr
            return
          </CharString>
          <CharString index="177">
            75 286.97999572753906 return
          </CharString>
          <CharString index="178">
            94.99000549316406 return
          </CharString>
          <CharString index="179">
            821.9900054931641 103 callgsubr
            -166 -122 -127 -113.00999450683594 -65 hvcurveto
            6 callgsubr
            146 70 573.9900054931641 rlineto
            323 callsubr
            hlineto
            return
          </CharString>
          <CharString index="180">
            1576.979995727539 rmoveto
            50 43 callsubr
            236 -211 52 callgsubr
            -40 104 13 callsubr
            rcurveline
            -310.99000549316406 117 callgsubr
            rlineto
            return
          </CharString>
          <CharString index="181">
            27 callgsubr
            1.9900054931640625 150 callgsubr
            return
          </CharString>
          <CharString index="182">
            126 callsubr
            -60 4 -53 hhcurveto
            return
          </CharString>
          <CharString index="183">
            hstemhm
            70 callsubr
            return
          </CharString>
          <CharString index="184">
            83.99000549316406 return
          </CharString>
          <CharString index="185">
            1653.990005493164 rmoveto
            110.02000427246094 45 callsubr
            -82 callsubr
            -57 63 -97 hhcurveto
            -95 -59 callgsubr
            -53 callgsubr
            -93 return
          </CharString>
          <CharString index="186">
            954 rmoveto
            115 callgsubr
            return
          </CharString>
          <CharString index="187">
            87 -66 callsubr
            return
          </CharString>
          <CharString index="188">
            hintmask 01101010
            -41 48 rlineto
            -773 hlineto
            -29 -211 rlineto
            488 hlineto
            -111 -104 -567.0099945068359 300 callgsubr
            -532.9900054931641 hlineto
            return
          </CharString>
          <CharString index="189">
            157 callgsubr
            hvcurveto
            -1 128 callsubr
            294 callgsubr
            240 callgsubr
            hlineto
            return
          </CharString>
          <CharString index="190">
            72.00999450683594 return
          </CharString>
          <CharString index="191">
            -75 -4 callgsubr
            -93 hhcurveto
            137 callsubr
            13 callgsubr
            6 9.009994506835938 -17 hvcurveto
            -31 -177 rlineto
            -16 23 119 108 callgsubr
            return
          </CharString>
          <CharString index="192">
            424.02000427246094 286.99000549316406 141.99000549316406 362.99000549316406 -98 callgsubr
            hvcurveto
            -1 167.02000427246094 -115 116.99000549316406 return
          </CharString>
          <CharString index="193">
            -81 -721.0200042724609 rlineto
            183.99000549316406 hlineto
            174 721.0200042724609 rlineto
            return
          </CharString>
          <CharString index="194">
            -29 callsubr
            hlineto
            return
          </CharString>
          <CharString index="195">
            111.97999572753906 return
          </CharString>
          <CharString index="196">
            -342.02000427246094 return
          </CharString>
          <CharString index="197">
            -102.00999450683594 return
          </CharString>
          <CharString index="198">
            140 -1108.990005493164 207 callsubr
            245 callgsubr
            436.97999572753906 1106.979995727539 105 284 -60 callgsubr
            -308 rlineto
            return
          </CharString>
          <CharString index="199">
            144 callsubr
            hintmask 01111000
            89 callgsubr
            -74 rlineto
            endchar
          </CharString>
          <CharString index="200">
            hlineto
            -92 callsubr
            return
          </CharString>
          <CharString index="201">
            106 callgsubr
            -93 return
          </CharString>
          <CharString index="202">
            194 52.02000427246094 111 145.99000549316406 -2 207 rrcurveto
            55 callsubr
            -1 -10 callgsubr
            160 -371.02000427246094 hhcurveto
            return
          </CharString>
          <CharString index="203">
            69 callsubr
            -321 -425 103 callsubr
            return
          </CharString>
          <CharString index="204">
            340.99000549316406 return
          </CharString>
          <CharString index="205">
            -129.99000549316406 return
          </CharString>
          <CharString index="206">
            -85.00999450683594 return
          </CharString>
          <CharString index="207">
            81 606.9900054931641 rlineto
            8 77 callgsubr
            -50 callsubr
            7 40 hhcurveto
            0 callgsubr
            76 -5 callgsubr
            -155 -6 hvcurveto
            return
          </CharString>
          <CharString index="208">
            175.97999572753906 268 220 284.02000427246094 return
          </CharString>
          <CharString index="209">
            -93 115 callsubr
            return
          </CharString>
          <CharString index="210">
            104 99 callsubr
            return
          </CharString>
          <CharString index="211">
            -275.99000549316406 hlineto
            return
          </CharString>
          <CharString index="212">
            -14 181 810.9799957275391 179.99000549316406 hstem
            76.97999572753906 278.99000549316406 441.02000427246094 281.97999572753906 vstem
            return
          </CharString>
          <CharString index="213">
            -87 callsubr
            2 return
          </CharString>
          <CharString index="214">
            26.009994506835938 return
          </CharString>
          <CharString index="215">
            -176.99000549316406 return
          </CharString>
          <CharString index="216">
            96.99000549316406 return
          </CharString>
          <CharString index="217">
            167 callgsubr
            277 callgsubr
            -180 43 652.9900054931641 188 470 192 93 callgsubr
            return
          </CharString>
          <CharString index="218">
            -146 -1290 rlineto
            208 hlineto
            233 1290 rlineto
            -295 hlineto
            return
          </CharString>
          <CharString index="219">
            -28 callgsubr
            28 return
          </CharString>
          <CharString index="220">
            -87 callgsubr
            hstem
            return
          </CharString>
          <CharString index="221">
            -157 -117 -131 -19 callsubr
            -47 hvcurveto
            return
          </CharString>
          <CharString index="222">
            -25 callgsubr
            178 callsubr
            return
          </CharString>
          <CharString index="223">
            -33 -216 392.99000549316406 11 return
          </CharString>
          <CharString index="224">
            227 -340.00999450683594 rlineto
            return
          </CharString>
          <CharString index="225">
            83 callgsubr
            hvcurveto
            return
          </CharString>
          <CharString index="226">
            hstemhm
            88 callsubr
            return
          </CharString>
          <CharString index="227">
            30.990005493164062 return
          </CharString>
          <CharString index="228">
            44.02000427246094 return
          </CharString>
          <CharString index="229">
            -388 185 callgsubr
            142 -389 326 470 331 -47.99000549316406 159.99000549316406 -717 -396 rlineto
            return
          </CharString>
          <CharString index="230">
            24 155 -9 callsubr
            40 callsubr
            44.02000427246094 -60 callgsubr
            return
          </CharString>
          <CharString index="231">
            -10 callgsubr
            -787 255 callsubr
            140.97999572753906 1032.990005493164 -118.99000549316406 21.009994506835938 return
          </CharString>
          <CharString index="232">
            1264.0399932861328 -103 callgsubr
            return
          </CharString>
          <CharString index="233">
            199 rlineto
            hintmask 11010100
            22 -51 return
          </CharString>
          <CharString index="234">
            -473 190.99000549316406 return
          </CharString>
          <CharString index="235">
            13.990005493164062 return
          </CharString>
          <CharString index="236">
            -20.990005493164062 return
          </CharString>
          <CharString index="237">
            -447 -185.99000549316406 1965.990005493164 hstem
            336.99000549316406 212.99000549316406 vstem
            337 1780 rmoveto
            return
          </CharString>
          <CharString index="238">
            -59 callgsubr
            -3 -50 callsubr
            -64 return
          </CharString>
          <CharString index="239">
            -47 callsubr
            hvcurveto
            return
          </CharString>
          <CharString index="240">
            112 callgsubr
            155 callgsubr
            hhcurveto
            111 71 80 95 return
          </CharString>
          <CharString index="241">
            40 vhcurveto
            -157 -136 -5 -41 rlineto
            48 6 callsubr
            29 return
          </CharString>
          <CharString index="242">
            166.99000549316406 return
          </CharString>
          <CharString index="243">
            60.99000549316406 return
          </CharString>
          <CharString index="244">
            -31.009994506835938 return
          </CharString>
          <CharString index="245">
            -4.0200042724609375 return
          </CharString>
          <CharString index="246">
            -71 callgsubr
            -149 -39 rlineto
            return
          </CharString>
          <CharString index="247">
            37 callsubr
            -88 return
          </CharString>
          <CharString index="248">
            -42 callsubr
            -86 19 vhcurveto
            return
          </CharString>
          <CharString index="249">
            105 27 callgsubr
            return
          </CharString>
          <CharString index="250">
            hstem
            50 callsubr
            282 return
          </CharString>
          <CharString index="251">
            33 callsubr
            33 callgsubr
            280 callsubr
            rlineto
            return
          </CharString>
          <CharString index="252">
            -74 rlineto
            -68 callgsubr
            -33.02000427246094 -40 return
          </CharString>
          <CharString index="253">
            -72 204 callgsubr
            205 197 4 callsubr
            return
          </CharString>
          <CharString index="254">
            63 -97 hhcurveto
            -95 -79 -53 callgsubr
            -93 return
          </CharString>
          <CharString index="255">
            hstemhm
            850.9799957275391 -66 callsubr
            return
          </CharString>
          <CharString index="256">
            117 callsubr
            178 hlineto
            return
          </CharString>
          <CharString index="257">
            rmoveto
            -376.02000427246094 -1037 rlineto
            return
          </CharString>
          <CharString index="258">
            -17 callsubr
            hstem
            return
          </CharString>
          <CharString index="259">
            1660.990005493164 rmoveto
            return
          </CharString>
          <CharString index="260">
            -73.99000549316406 return
          </CharString>
          <CharString index="261">
            54.99000549316406 return
          </CharString>
          <CharString index="262">
            -101.99000549316406 return
          </CharString>
          <CharString index="263">
            88.99000549316406 return
          </CharString>
          <CharString index="264">
            -95.99000549316406 return
          </CharString>
          <CharString index="265">
            -73.00999450683594 return
          </CharString>
          <CharString index="266">
            129.99000549316406 return
          </CharString>
          <CharString index="267">
            rmoveto
            110 -10 callgsubr
            rlineto
            110 callgsubr
            43 63 53 81 134 63 108 callsubr
            return
          </CharString>
          <CharString index="268">
            142 callsubr
            58 callgsubr
            55 callgsubr
            -50 callsubr
            return
          </CharString>
          <CharString index="269">
            40 callsubr
            44 -48 callsubr
            return
          </CharString>
          <CharString index="270">
            145 30 196.02000427246094 23 169.99000549316406 rrcurveto
            23 160 17 133 54 vvcurveto
            216 return
          </CharString>
          <CharString index="271">
            1634.979995727539 203 callgsubr
            -75 100 37 return
          </CharString>
          <CharString index="272">
            23 callgsubr
            133 return
          </CharString>
          <CharString index="273">
            428.99000549316406 return
          </CharString>
          <CharString index="274">
            25.990005493164062 return
          </CharString>
          <CharString index="275">
            74.02000427246094 return
          </CharString>
          <CharString index="276">
            3 79.00999450683594 hhcurveto
            187 callgsubr
            98 -62 -163 2 hvcurveto
            -227 2 -154 -64 return
          </CharString>
          <CharString index="277">
            126 callgsubr
            -300.02000427246094 -206 223 callgsubr
            206 return
          </CharString>
          <CharString index="278">
            81 94 -87 callsubr
            75 2 return
          </CharString>
          <CharString index="279">
            107 callgsubr
            -133 hhcurveto
            -122 return
          </CharString>
          <CharString index="280">
            131 282 callsubr
            return
          </CharString>
          <CharString index="281">
            -372.02000427246094 rlineto
            return
          </CharString>
          <CharString index="282">
            rmoveto
            105 63 326 callgsubr
            -55 94 callsubr
            -69 return
          </CharString>
          <CharString index="283">
            28 rlinecurve
            104 -6.9900054931640625 rlineto
            264.99000549316406 hlineto
            107 callsubr
            210 rlineto
            return
          </CharString>
          <CharString index="284">
            -30 callsubr
            -72 300.00999450683594 205 return
          </CharString>
          <CharString index="285">
            36 183 136 57 106 rlinecurve
            return
          </CharString>
          <CharString index="286">
            5 callgsubr
            291 return
          </CharString>
          <CharString index="287">
            266.99000549316406 return
          </CharString>
          <CharString index="288">
            -146.99000549316406 return
          </CharString>
          <CharString index="289">
            181.99000549316406 return
          </CharString>
          <CharString index="290">
            176.99000549316406 return
          </CharString>
          <CharString index="291">
            -28.020004272460938 return
          </CharString>
          <CharString index="292">
            213 315 hstemhm
            return
          </CharString>
          <CharString index="293">
            49.99000549316406 return
          </CharString>
          <CharString index="294">
            -32.99000549316406 return
          </CharString>
          <CharString index="295">
            55.99000549316406 return
          </CharString>
          <CharString index="296">
            -49.99000549316406 return
          </CharString>
          <CharString index="297">
            hlineto
            -4 callgsubr
            -210 rlineto
            237 hlineto
            208 callsubr
            6.9900054931640625 return
          </CharString>
          <CharString index="298">
            221 callgsubr
            vstem
            1054.990005493164 1838.979995727539 rmoveto
            -485.99000549316406 return
          </CharString>
          <CharString index="299">
            852.9900054931641 rmoveto
            610 677 rlineto
            -318 hlineto
            -600 -719.0099945068359 return
          </CharString>
          <CharString index="300">
            555.9900054931641 530.9799957275391 rmoveto
            -30 -257.97999572753906 rlineto
            226 hlineto
            return
          </CharString>
          <CharString index="301">
            906.9900054931641 231 callsubr
            197.97999572753906 267.02000427246094 return
          </CharString>
          <CharString index="302">
            1792 rmoveto
            97 -110.02000427246094 40 42 return
          </CharString>
          <CharString index="303">
            234 callgsubr
            1046.990005493164 vstem
            return
          </CharString>
          <CharString index="304">
            1664.979995727539 203 callgsubr
            -93 return
          </CharString>
          <CharString index="305">
            201 callgsubr
            180 hhcurveto
            return
          </CharString>
          <CharString index="306">
            hhcurveto
            41 callsubr
            return
          </CharString>
          <CharString index="307">
            62 -69.97999572753906 return
          </CharString>
          <CharString index="308">
            210 callsubr
            rlineto
            return
          </CharString>
          <CharString index="309">
            hvcurveto
            51 callsubr
            return
          </CharString>
          <CharString index="310">
            189.99000549316406 return
          </CharString>
          <CharString index="311">
            0.9900054931640625 return
          </CharString>
          <CharString index="312">
            -41.99000549316406 return
          </CharString>
          <CharString index="313">
            -31.990005493164062 return
          </CharString>
          <CharString index="314">
            265.00999450683594 return
          </CharString>
          <CharString index="315">
            132.02000427246094 return
          </CharString>
          <CharString index="316">
            329.00999450683594 return
          </CharString>
          <CharString index="317">
            206 -116 -83 return
          </CharString>
          <CharString index="318">
            207 callgsubr
            257 callsubr
            return
          </CharString>
          <CharString index="319">
            hlineto
            157 1140 264 callsubr
            28 callsubr
            return
          </CharString>
          <CharString index="320">
            104 -85 120 callgsubr
            46 241 227 35.99000549316406 68 rlinecurve
            return
          </CharString>
          <CharString index="321">
            182 hstem
            121 callgsubr
            84 callgsubr
            vstem
            121 callgsubr
            return
          </CharString>
          <CharString index="322">
            -180 198 callgsubr
            return
          </CharString>
          <CharString index="323">
            143.989990234375 303 return
          </CharString>
          <CharString index="324">
            -107.99000549316406 return
          </CharString>
          <CharString index="325">
            220.99000549316406 return
          </CharString>
          <CharString index="326">
            165.99000549316406 return
          </CharString>
          <CharString index="327">
            147.99000549316406 return
          </CharString>
          <CharString index="328">
            8.009994506835938 return
          </CharString>
          <CharString index="329">
            hlineto
            -34 -186 rlineto
            return
          </CharString>
          <CharString index="330">
            282.99000549316406 return
          </CharString>
          <CharString index="331">
            hvcurveto
            156.02000427246094 299 callsubr
            return
          </CharString>
          <CharString index="332">
            hhcurveto
            -28 callsubr
            return
          </CharString>
          <CharString index="333">
            rmoveto
            -112 257 callgsubr
            return
          </CharString>
          <CharString index="334">
            43 887.9700012207031 225 return
          </CharString>
          <CharString index="335">
            rmoveto
            62 callgsubr
            return
          </CharString>
          <CharString index="336">
            -27 callgsubr
            rlineto
            return
          </CharString>
          <CharString index="337">
            1 121 callsubr
            return
          </CharString>
          <CharString index="338">
            848.9900054931641 hstem
            return
          </CharString>
          <CharString index="339">
            hlineto
            -9 callsubr
            return
          </CharString>
          <CharString index="340">
            vhcurveto
            -98 callgsubr
            return
          </CharString>
          <CharString index="341">
            190 332.97999572753906 45 hvcurveto
            156 1138.009994506836 rlineto
            return
          </CharString>
          <CharString index="342">
            -36 callsubr
            57 callsubr
            return
          </CharString>
          <CharString index="343">
            295 callsubr
            14 callgsubr
            return
          </CharString>
          <CharString index="344">
            -36 callgsubr
            63 callgsubr
            301.02000427246094 223 return
          </CharString>
          <CharString index="345">
            213.99000549316406 -37.00001525878906 return
          </CharString>
          <CharString index="346">
            -147 -1073 rlineto
            90 callgsubr
            return
          </CharString>
          <CharString index="347">
            10.020004272460938 return
          </CharString>
          <CharString index="348">
            237.99000549316406 return
          </CharString>
          <CharString index="349">
            -84.99000549316406 return
          </CharString>
          <CharString index="350">
            22.020004272460938 return
          </CharString>
          <CharString index="351">
            -3.9900054931640625 return
          </CharString>
          <CharString index="352">
            -91.02000427246094 return
          </CharString>
          <CharString index="353">
            342.02000427246094 return
          </CharString>
          <CharString index="354">
            82.99000549316406 return
          </CharString>
          <CharString index="355">
            vstem
            288 callsubr
            873.9799957275391 rmoveto
            -33 -203 rlineto
            return
          </CharString>
          <CharString index="356">
            rmoveto
            261 callgsubr
            return
          </CharString>
          <CharString index="357">
            214 rlineto
            -533.0099945068359 hlineto
            99 -23 callgsubr
            rlineto
            return
          </CharString>
          <CharString index="358">
            97 -140 101.00999450683594 -77 69 5 128 rrcurveto
            121 return
          </CharString>
          <CharString index="359">
            vstem
            247.99000549316406 873.9799957275391 rmoveto
            -27 -203 rlineto
            return
          </CharString>
          <CharString index="360">
            192 30 177 rlineto
            -220 hlineto
            -24 -177 -12 -192 rlineto
            return
          </CharString>
          <CharString index="361">
            1189.990005493164 591.9900054931641 hstem
            249.99000549316406 return
          </CharString>
          <CharString index="362">
            rlineto
            245 hlineto
            return
          </CharString>
          <CharString index="363">
            hhcurveto
            59 36 -12 callgsubr
            return
          </CharString>
          <CharString index="364">
            -98 callgsubr
            -75 callsubr
            -64 78 hhcurveto
            111 return
          </CharString>
          <CharString index="365">
            -1.9799957275390625 rcurveline
            -65 100.97999572753906 -66 117 return
          </CharString>
          <CharString index="366">
            1582 rmoveto
            149 callsubr
            return
          </CharString>
          <CharString index="367">
            -393.02000427246094 485.99000549316406 486.00999450683594 return
          </CharString>
          <CharString index="368">
            rmoveto
            275 callsubr
            -93 -25 callgsubr
            36 183 return
          </CharString>
          <CharString index="369">
            -16 53 hhcurveto
            184 105 87 179 return
          </CharString>
          <CharString index="370">
            141 rlineto
            88 callgsubr
            return
          </CharString>
          <CharString index="371">
            rlineto
            135 callgsubr
            hlineto
            return
          </CharString>
          <CharString index="372">
            100.989990234375 182 return
          </CharString>
          <CharString index="373">
            -19 callsubr
            hvcurveto
            return
          </CharString>
          <CharString index="374">
            180 callsubr
            vstem
            return
          </CharString>
          <CharString index="375">
            -66 callsubr
            vstem
            return
          </CharString>
          <CharString index="376">
            -36.99000549316406 return
          </CharString>
          <CharString index="377">
            -66.99000549316406 return
          </CharString>
          <CharString index="378">
            246.99000549316406 return
          </CharString>
          <CharString index="379">
            227.97999572753906 return
          </CharString>
          <CharString index="380">
            -115.02000427246094 return
          </CharString>
          <CharString index="381">
            -166.99000549316406 return
          </CharString>
          <CharString index="382">
            108.02000427246094 return
          </CharString>
          <CharString index="383">
            134.00999450683594 return
          </CharString>
          <CharString index="384">
            178.02000427246094 return
          </CharString>
          <CharString index="385">
            1285.979995727539 return
          </CharString>
          <CharString index="386">
            84.99000549316406 return
          </CharString>
          <CharString index="387">
            -140 -112 return
          </CharString>
          <CharString index="388">
            -87 callsubr
            3 -368 -149.02000427246094 return
          </CharString>
          <CharString index="389">
            43 -37 43 hstemhm
            return
          </CharString>
          <CharString index="390">
            -12 -4 29 callsubr
            return
          </CharString>
          <CharString index="391">
            58 432 571 -5 rlineto
            -1344 -757 rmoveto
            return
          </CharString>
          <CharString index="392">
            182 callsubr
            rmoveto
            -151 -29 113 109 return
          </CharString>
          <CharString index="393">
            -2 -179 135 -316 hhcurveto
            return
          </CharString>
          <CharString index="394">
            63 -70 83 callsubr
            hhcurveto
            return
          </CharString>
          <CharString index="395">
            253.99000549316406 return
          </CharString>
          <CharString index="396">
            217.99000549316406 return
          </CharString>
          <CharString index="397">
            128.97999572753906 return
          </CharString>
          <CharString index="398">
            -140.99000549316406 return
          </CharString>
          <CharString index="399">
            -40.02000427246094 return
          </CharString>
          <CharString index="400">
            67.99000549316406 return
          </CharString>
          <CharString index="401">
            -167 157 return
          </CharString>
          <CharString index="402">
            -36 callgsubr
            63 callgsubr
            301 return
          </CharString>
          <CharString index="403">
            -9 callgsubr
            -72 callgsubr
            64 -65 return
          </CharString>
          <CharString index="404">
            158 callsubr
            -2 200 callsubr
            return
          </CharString>
          <CharString index="405">
            43 callsubr
            217 callgsubr
            -211 return
          </CharString>
          <CharString index="406">
            1138.009994506836 264 callsubr
            return
          </CharString>
          <CharString index="407">
            278 callgsubr
            rmoveto
            103 callsubr
            return
          </CharString>
          <CharString index="408">
            182 callsubr
            hstemhm
            return
          </CharString>
          <CharString index="409">
            42 77 callgsubr
            return
          </CharString>
          <CharString index="410">
            -82 callsubr
            hvcurveto
            return
          </CharString>
          <CharString index="411">
            958.9900054931641 hstem
            return
          </CharString>
          <CharString index="412">
            262 callgsubr
            -53 hhcurveto
            return
          </CharString>
          <CharString index="413">
            -232 hvcurveto
            -325 -995 rmoveto
            -42 -39 4 return
          </CharString>
          <CharString index="414">
            227 -317.00999450683594 rlineto
            178 hlineto
            return
          </CharString>
          <CharString index="415">
            198 callsubr
            115 return
          </CharString>
          <CharString index="416">
            hstemhm
            1071.979995727539 -66 callsubr
            return
          </CharString>
          <CharString index="417">
            158 callgsubr
            -74 rlineto
            return
          </CharString>
          <CharString index="418">
            154 callgsubr
            157 return
          </CharString>
          <CharString index="419">
            343 341 -115 77 return
          </CharString>
          <CharString index="420">
            rlineto
            -265.99000549316406 hlineto
            return
          </CharString>
          <CharString index="421">
            -148.99000549316406 return
          </CharString>
          <CharString index="422">
            122 11 -145 return
          </CharString>
          <CharString index="423">
            302.97999572753906 return
          </CharString>
          <CharString index="424">
            211.99000549316406 return
          </CharString>
          <CharString index="425">
            -25.009994506835938 return
          </CharString>
          <CharString index="426">
            229.99000549316406 return
          </CharString>
          <CharString index="427">
            151.97999572753906 return
          </CharString>
          <CharString index="428">
            1606.979995727539 return
          </CharString>
          <CharString index="429">
            31.009994506835938 return
          </CharString>
          <CharString index="430">
            -263.99000549316406 return
          </CharString>
          <CharString index="431">
            -1 rlinecurve
            hintmask 11100100
            201 callgsubr
            return
          </CharString>
          <CharString index="432">
            157 -277 89 callsubr
            rlineto
            return
          </CharString>
          <CharString index="433">
            -140 -94 -27 callgsubr
            -44 hvcurveto
            return
          </CharString>
          <CharString index="434">
            rmoveto
            -112 -70 -74 callsubr
            -97 return
          </CharString>
        <CharString name=".notdef">
          571 0 218.99000549316406 973.989990234375 223 hstem
          218 callsubr
          228.99000549316406 959.9999847412109 227 vstem
          221 1415.990005493164 rmoveto
          -1415.990005493164 1415.990005493164 1415.990005493164 -1415.990005493164 vlineto
          358 -1197 rmoveto
          -128 144 357.99000549316406 342 -359 363.00999450683594 123 124.99000549316406 357.00999450683594 -367.99000549316406 351.99000549316406 366 128 -124 -362.99000549316406 -357.99000549316406 362.99000549316406 -368 -122 -122 -362 368 -346.99000549316406 -368 rlineto
          endchar
        </CharString>
        <CharString name="A">
          4 -1 -81 callgsubr
          hstemhm
          -100 1334.979995727539 hintmask 01101100
          957.9900054931641 -1 rmoveto
          276.99000549316406 1 -257 1530 rlineto
          -333.99000549316406 hlineto
          hintmask 10101100
          -73 callsubr
          hintmask 01101100
          48 -341.99000549316406 rlineto
          -523 537.9900054931641 rmoveto
          hintmask 01110100
          -79 callsubr
          hintmask 01101100
          -448 hlineto
          endchar
        </CharString>
        <CharString name="AE">
          573 72 callgsubr
          hstemhm
          -125 1964.990005493164 hintmask 11110010
          1817.990005493164 1314 rmoveto
          22 216 rlineto
          -1444 hlineto
          hintmask 11100110
          16 callsubr
          432 -12 23.990005493164062 221 -429 -6 rlineto
          hintmask 11110010
          284 callsubr
          hintmask 11101010
          237 callgsubr
          hintmask 11110010
          -395 hlineto
          endchar
        </CharString>
        <CharString name="AEacute">
          579 72 callgsubr
          135 43 hstemhm
          -119 1964.990005493164 hintmask 11110011
          1477 -14 callsubr
          319 callgsubr
          -536 rmoveto
          22 216 rlineto
          -1444 hlineto
          hintmask 11100111
          16 callsubr
          432.00999450683594 -12 23.979995727539062 221 -429 -6 rlineto
          hintmask 11110011
          284 callsubr
          hintmask 11101011
          237 callgsubr
          hintmask 11110011
          -395 hlineto
          endchar
        </CharString>
        <CharString name="Aacute">
          4 -1 -81 callgsubr
          135 43 hstemhm
          -100 1334.979995727539 hintmask 01101110
          1180 283 callgsubr
          166 callgsubr
          108 -1 callsubr
          -5 callsubr
          106 rlinecurve
          -222 -1851 -93 callsubr
        </CharString>
        <CharString name="Abreve">
          4 -1 -81 callgsubr
          265 callsubr
          hstemhm
          512.9799957275391 84 callgsubr
          hintmask 01101110
          825 1630.990005493164 rmoveto
          226 -30 callsubr
          176 157 11.020004272460938 hvcurveto
          204 callsubr
          11 0 11 11 vvcurveto
          -157.99000549316406 hlineto
          -70 -18 -31 -113.99000549316406 -133 hhcurveto
          -122 -25 72 74 -8 hvcurveto
          -47 callsubr
          128 callsubr
          204 callsubr
          13 11 vvcurveto
          -161 hlineto
          -98 callgsubr
          -12 138 callsubr
          29 callsubr
          200 callgsubr
          228 vhcurveto
          133 -1631.990005493164 -93 callsubr
        </CharString>
        <CharString name="Acircumflex">
          4 -1 -81 callgsubr
          173 callsubr
          -100 1334.979995727539 hintmask 01101011
          872 1793.990005493164 rmoveto
          -31 callgsubr
          hintmask 01101101
          26 callsubr
          hintmask 01101011
          177 callsubr
          rlineto
          86 -1794.990005493164 rmoveto
          276.99000549316406 1 -257 1530 rlineto
          -333.99000549316406 hlineto
          hintmask 10101011
          -73 callsubr
          hintmask 01101011
          48 -341.99000549316406 rlineto
          -523 537.9900054931641 rmoveto
          hintmask 01110011
          -79 callsubr
          hintmask 01101011
          -448 hlineto
          endchar
        </CharString>
        <CharString name="Adieresis">
          4 -1 -81 callgsubr
          276 callsubr
          -17 callsubr
          hstemhm
          455.97999572753906 272 callgsubr
          144.00999450683594 303 hintmask 01101111
          587.9799957275391 1664 rmoveto
          104.02000427246094 74 callsubr
          -89.00999450683594 63 callgsubr
          -77 -93 -3 hvcurveto
          297 callsubr
          232 callgsubr
          445.00999450683594 hmoveto
          161 callsubr
          -5 callgsubr
          hhcurveto
          -87.99000549316406 -74.02000427246094 -77 -93 -1 hvcurveto
          -74 -47 callsubr
          110 callgsubr
          -69 83 callsubr
          hhcurveto
          -75 -1665 rmoveto
          276.99000549316406 1 -257 1530 rlineto
          -333.99000549316406 hlineto
          hintmask 10101111
          -73 callsubr
          hintmask 01101111
          48 -341.99000549316406 rlineto
          -523 537.9900054931641 rmoveto
          hintmask 01110111
          -79 callsubr
          hintmask 01101111
          -448 hlineto
          endchar
        </CharString>
        <CharString name="Agrave">
          4 -1 -81 callgsubr
          135 43 hstemhm
          -100 1334.979995727539 hintmask 01101110
          811.9900054931641 1571.979995727539 203 callgsubr
          93 -276.99000549316406 246 callsubr
          -167 -157 57 287 callgsubr
          -42 callsubr
          -36 rlinecurve
          146 -1572.979995727539 -93 callsubr
        </CharString>
        <CharString name="Amacron">
          4 -1 -81 callgsubr
          187.989990234375 12 callsubr
          hstemhm
          -100 1334.979995727539 hintmask 01101110
          1090.990005493164 174 callgsubr
          -544.0200042724609 hlineto
          -11.979995727539062 -179 180 callgsubr
          13 179 rlineto
          -133 -1897.979995727539 -93 callsubr
        </CharString>
        <CharString name="Aogonek">
          10 127 callsubr
          281.00999450683594 -81 callgsubr
          hstemhm
          728.9799957275391 241 callsubr
          hintmask 10110110
          1031.990005493164 -282 rmoveto
          -31 -34 13 56 69 121.02000427246094 156 callsubr
          104.97999572753906 55 hvcurveto
          48 hlineto
          -257 1530 rlineto
          -333.99000549316406 hlineto
          hintmask 11010110
          -743.9900054931641 -1531 300.99000549316406 1 220 callsubr
          97 callsubr
          rlineto
          561.0099945068359 hlineto
          48 -341.99000549316406 rlineto
          25 hlineto
          -87.02000427246094 6 callsubr
          -173 273 callsubr
          -140 28 callgsubr
          hintmask 10110110
          -42 -56 292 callsubr
          -13 -45 hhcurveto
          -590.9900054931641 818.9900054931641 rmoveto
          hintmask 10111010
          294.99000549316406 679.0200042724609 47 121 10 -118 -42 callsubr
          -682 rlineto
          hintmask 10110110
          -448 hlineto
          endchar
        </CharString>
        <CharString name="Aring">
          4 -1 43 -42 43 297.99000549316406 195.99000549316406 1348.009994506836 122 hstemhm
          499.99000549316406 84 callgsubr
          322.99998474121094 169 hintmask 01111100
          957.9900054931641 -1 rmoveto
          276.99000549316406 1 -251.99000549316406 1501.979995727539 rlineto
          52 callgsubr
          43 75 84 128.99000549316406 vvcurveto
          163 -118.99000549316406 86.02000427246094 -172 -159 -209.99000549316406 -36 callsubr
          -210 -102 47.99000549316406 158 callsubr
          83 -40 vhcurveto
          hintmask 10111100
          -730.9900054931641 -1503.990005493164 300.99000549316406 1 148 97 callsubr
          rlineto
          560.9900054931641 hlineto
          hintmask 01111100
          48 -341.99000549316406 rlineto
          -110 1886 rmoveto
          80 63 -55 -77 51 callgsubr
          -88 -30 -27 callgsubr
          -9 callgsubr
          128 callgsubr
          59 76 122 109 callsubr
          36 83 hvcurveto
          -413 -1348.009994506836 rmoveto
          -79 callsubr
          -448 hlineto
          endchar
        </CharString>
        <CharString name="Atilde">
          4 -1 -81 callgsubr
          99.989990234375 -41 callsubr
          -100 1379 hintmask 0000000000000000
          hintmask 0110110010000000
          681.9799957275391 59 callgsubr
          hintmask 0110101110000000
          -7 callgsubr
          -43.99000549316406 hvcurveto
          109 callsubr
          -110.02000427246094 rlineto
          hintmask 0110110010000000
          306 callgsubr
          hintmask 1010101110000000
          -37.99000549316406 -242 rmoveto
          -73 callsubr
          hintmask 0110101110000000
          48 -341.99000549316406 276.99000549316406 1 -257 1530 rlineto
          hintmask 1010101110000000
          -333.99000549316406 hlineto
          -209 -993.0099945068359 rmoveto
          hintmask 0111001110000000
          -79 callsubr
          hintmask 1010101110000000
          -448 hlineto
          endchar
        </CharString>
        <CharString name="B">
          -5 110 callsubr
          hstemhm
          909.9799957275391 293 -266 281 hintmask 10110100
          914.9799957275391 802.9799957275391 rmoveto
          hintmask 10110010
          95 callsubr
          hintmask 01101100
          -108.99000549316406 105 callgsubr
          79 hhcurveto
          hintmask 10110100
          85 callsubr
          -172.02000427246094 29 rrcurveto
          hintmask 10110010
          163 callgsubr
          -40.97999572753906 -47 0 -82 callsubr
          -43 hvcurveto
          63 462 rlineto
          5 42 186 callsubr
          1 44 hhcurveto
          167 83 -48 -129 303 callsubr
          hintmask 10110100
          -395.99000549316406 -996.9900054931641 rmoveto
          -36 -69 -98 callsubr
          9.020004272460938 -43 hvcurveto
          -75 callsubr
          499 rlineto
          -82 callsubr
          33 44 169 callsubr
          223 callgsubr
          hhcurveto
          endchar
        </CharString>
        <CharString name="C">
          -134 18 callsubr
          hstem
          71 callsubr
          282 vstem
          855.9799957275391 1545.990005493164 rmoveto
          -442.99000549316406 -323.00999450683594 -99 callgsubr
        </CharString>
        <CharString name="CR">
          -1301 endchar
        </CharString>
        <CharString name="Cacute">
          -134 18 callsubr
          63 callsubr
          43 hstem
          71 callsubr
          282 vstem
          761 -42 callgsubr
          71 callsubr
          -118.99000549316406 rmoveto
          -442.99000549316406 -323.00999450683594 -99 callgsubr
        </CharString>
        <CharString name="Ccaron">
          -134 18 callsubr
          hstem
          71 callsubr
          282 vstem
          501.99000549316406 65 callsubr
          354 -378 rmoveto
          -442.99000549316406 -323.00999450683594 -99 callgsubr
        </CharString>
        <CharString name="Ccedilla">
          -134 -466 194 261.00999450683594 289 callsubr
          1106.990005493164 231.99000549316406 hstem
          71 callsubr
          282 164 156 callgsubr
          vstem
          833.9900054931641 1314 rmoveto
          157 82 -59 -27.009994506835938 36 hvcurveto
          86 250 -54 16.020004272460938 rlineto
          22 0 callsubr
          -83 30 -142 hhcurveto
          -442.99000549316406 -323.00999450683594 -397 -523 5 hvcurveto
          3 -292 -36 callgsubr
          -304.99000549316406 334.00999450683594 -39.99000549316406 -82 callsubr
          -32 0 -40 -47 callsubr
          269 callsubr
          rrcurveto
          -126.02000427246094 -3 -75 -60 callgsubr
          -93 hhcurveto
          137 callsubr
          13 callgsubr
          6 8.990005493164062 -17 hvcurveto
          -31 108 callsubr
          rlineto
          108 callgsubr
          23 63 callsubr
          262 callsubr
          5 callsubr
          -14.009994506835938 75 -18 51 hvcurveto
          185.02000427246094 17.979995727539062 118.99000549316406 64 34 27.020004272460938 -37.99000549316406 208 rcurveline
          -35 -45 -134 -64 -154 hhcurveto
          -214 -74 callsubr
          169 261 -30 callgsubr
          295 -3 116 382.02000427246094 344 hhcurveto
          endchar
        </CharString>
        <CharString name="Ccircumflex">
          -134 18 callsubr
          115.00999450683594 282 callsubr
          71 callsubr
          282 hintmask 00000000
          hintmask 11101000
          483.97999572753906 152 callsubr
          hintmask 11011000
          160 callgsubr
          146 callsubr
          119 73 -200.99000549316406 340 rlineto
          279 callgsubr
          hlineto
          hintmask 11101000
          26 callsubr
          hintmask 11011000
          372 -115 rmoveto
          -442.99000549316406 -323.00999450683594 -99 callgsubr
        </CharString>
        <CharString name="Cdotaccent">
          -128 18 callsubr
          107.99998474121094 151 callsubr
          100.99000549316406 282 315 210 callgsubr
          vstem
          698 -22 callsubr
          83 callsubr
          171 callsubr
          211 callgsubr
          63 -97 hhcurveto
          -95 -79 57 callsubr
          163.99000549316406 -251 rmoveto
          -443 -322.99000549316406 -99 callgsubr
        </CharString>
        <CharString name="D">
          99 101 callgsubr
          309 callsubr
          hintmask 10101000
          1356.979995727539 926.9900054931641 235 callgsubr
          hhcurveto
          hintmask 01011000
          -67 callsubr
          hintmask 10101000
          -59 callsubr
          276 callgsubr
          -738 -89 callgsubr
          endchar
        </CharString>
        <CharString name="Dcaron">
          96 callgsubr
          hstemhm
          1077.979995727539 -66 callsubr
          hintmask 10101000
          879.9799957275391 321 callsubr
          rmoveto
          126 callgsubr
          -299.99000549316406 -206 -217 210 callsubr
          281 callgsubr
          483 -680 235 callgsubr
          hhcurveto
          hintmask 01011000
          -67 callsubr
          hintmask 10101000
          -39 callsubr
        </CharString>
        <CharString name="Dcroat">
          -88 callgsubr
        </CharString>
        <CharString name="E">
          -130 0 -77 callsubr
          196 callsubr
          205 callgsubr
          1530 -103 callsubr
        </CharString>
        <CharString name="Eacute">
          -130 0 -77 callsubr
          135 43 196 callsubr
          658.9799957275391 1664.979995727539 261 callsubr
          136 57 106 rlinecurve
          294 callsubr
          135 callgsubr
          89 callsubr
          rlineto
          -362 -134.99000549316406 -103 callsubr
        </CharString>
        <CharString name="Ebreve">
          -130 0 -77 callsubr
          265 callsubr
          hstem
          435.99000549316406 84 callgsubr
          vstem
          436 1944.990005493164 rmoveto
          49 callsubr
          226 160 callgsubr
          176 157 11 vhcurveto
          1 11 26 callgsubr
          -31 3 callsubr
          315 callgsubr
          hlineto
          -98 callgsubr
          283 callsubr
          -139.02000427246094 -414.99000549316406 -103 callsubr
        </CharString>
        <CharString name="Ecaron">
          -130 0 -77 callsubr
          234 callgsubr
          1056.990005493164 vstem
          399.99000549316406 1923.990005493164 rmoveto
          281 callgsubr
          126 callgsubr
          -300 -206 -217 201 callsubr
          -103.00999450683594 -394 -103 callsubr
        </CharString>
        <CharString name="Ecircumflex">
          -130 0 -77 callsubr
          173 callsubr
          -23 callgsubr
          1046.990005493164 hintmask 00000000
          hintmask 11110100
          381.99000549316406 152 callsubr
          hintmask 11101100
          177 callsubr
          35 callgsubr
          hintmask 11110100
          26 callsubr
          hintmask 11101100
          99 callsubr
          51 callgsubr
          -103 callsubr
        </CharString>
        <CharString name="Edieresis">
          -130 0 -77 callsubr
          276 callsubr
          151 callsubr
          378.97999572753906 272 callgsubr
          144.02000427246094 303 vstem
          378.97999572753906 76 callgsubr
          -72 callgsubr
          61.99000549316406 -69.97999572753906 83 callsubr
          hhcurveto
          104 74 callsubr
          -89 63 callgsubr
          -77 -93 -3 hvcurveto
          446.02000427246094 66 callsubr
          -528.0200042724609 -277 -103 callsubr
        </CharString>
        <CharString name="Edotaccent">
          -130 0 -77 callsubr
          4 callgsubr
          590.9900054931641 210 callgsubr
          hintmask 00000000
          hintmask 11111000
          590.9900054931641 -22 callsubr
          83 callsubr
          171 callsubr
          -57 63 -96.99000549316406 hhcurveto
          -95.00999450683594 235 callsubr
          -294.00999450683594 -267 -103 callsubr
        </CharString>
        <CharString name="Egrave">
          -130 0 -77 callsubr
          135 43 196 callsubr
          398.99000549316406 283 callgsubr
          57 -106 183 -136 -25 callgsubr
          -36 108.00999450683594 93 rcurveline
          -277.00999450683594 246 callsubr
          -167 -157 rlineto
          90 callsubr
          -320 -103 callsubr
        </CharString>
        <CharString name="Emacron">
          -130 0 -77 callsubr
          187.989990234375 12 callsubr
          196 callsubr
          470 53 callsubr
          -173.02000427246094 -366.99000549316406 -103 callsubr
        </CharString>
        <CharString name="Eng">
          213 113 callsubr
          109 callsubr
          1322.979995727539 vstem
          1154.990005493164 1530 rmoveto
          -71 callsubr
          -54 callsubr
          388 -921 -34 -124.99000549316406 -27 callgsubr
          -98 -180.02000427246094 137 callgsubr
          rlinecurve
          46.02000427246094 217 callsubr
          273.97999572753906 30 181 140.99000549316406 59 194 rlinecurve
          2 hlineto
          205.99000549316406 1530 rlineto
          99 callgsubr
          hlineto
          endchar
        </CharString>
        <CharString name="Eogonek">
          -124 127 callsubr
          282.00999450683594 -77 callsubr
          hstem
          556.9900054931641 241 callsubr
          vstem
          1122 1314 rmoveto
          22 216 rlineto
          -841.0099945068359 93 callsubr
          722 86 callgsubr
          133 50 callsubr
          95 49 60 61 vhcurveto
          -46.02000427246094 91 callgsubr
          rlineto
          -42 -56 -40 -13 -45 hhcurveto
          137 callsubr
          102 callgsubr
          22 hlineto
          25.009994506835938 14 callgsubr
          -666.0099945068359 -13 5 callsubr
          474.00999450683594 431.99000549316406 -12 24 221 -428 -6 57 432 572 -5 rlineto
          endchar
        </CharString>
        <CharString name="Eth">
          -88 callgsubr
        </CharString>
        <CharString name="Euro">
          88 -95 callsubr
          203 callsubr
          364.99000549316406 161.99000549316406 176.00999450683594 160.99000549316406 306.99998474121094 201 hstem
          226.97999572753906 280 vstem
          962.9900054931641 1545.990005493164 rmoveto
          -309 -252.99000549316406 -193 -315 107 callgsubr
          hvcurveto
          -198 hlineto
          -29 callgsubr
          -161 rlineto
          174 hlineto
          -11 -56 -6 -58.99000549316406 -3 -61 rrcurveto
          -179 302 callgsubr
          -162 rlineto
          203 hlineto
          -282.00999450683594 107 callsubr
          142 -272.9700012207031 97 callsubr
          hhcurveto
          206 168 60.97999572753906 80 71 hvcurveto
          -63.02000427246094 169 rlineto
          -62 -83.99000549316406 -96.00999450683594 -58 -154.99000549316406 hhcurveto
          -179 -82 139 226 -16 callgsubr
          hvcurveto
          509.00999450683594 hlineto
          17 162 rlineto
          -526.0099945068359 hlineto
          3 62 7 59 10 55 rrcurveto
          529 hlineto
          19.009994506835938 161 rlineto
          -506 hlineto
          191 70 123.99000549316406 116 171 hhcurveto
          141 106.99000549316406 -39 -28 107 callsubr
          hvcurveto
          69 214 rlineto
          23 -75 -9 callgsubr
          31 240 callgsubr
          hhcurveto
          endchar
        </CharString>
        <CharString name="F">
          170 callgsubr
          234 callgsubr
          1030 vstem
          205 callgsubr
          1530 44 callsubr
        </CharString>
        <CharString name="G">
          83 -70 callgsubr
          hstem
          92 280 vstem
          753.9900054931641 570 -21 callgsubr
          141 128 callgsubr
          -36 46.99000549316406 hvcurveto
          68.00999450683594 250 -66 -105 callsubr
          endchar
        </CharString>
        <CharString name="Gbreve">
          89 -70 callgsubr
          85 182 hstem
          98 280 209.97999572753906 168.00999450683594 vstem
          899.9900054931641 1630.990005493164 rmoveto
          226 113 176 157 11 hvcurveto
          247 callgsubr
          11 0 11 11 vvcurveto
          -157.97999572753906 hlineto
          -70 -18 137 callsubr
          3 callsubr
          315 callgsubr
          hlineto
          -98 callgsubr
          -12 -4.0099945068359375 29 callsubr
          -169 84 -145 228 vhcurveto
          -140 -1060.990005493164 -21 callgsubr
          140.97999572753906 128 callgsubr
          -36 47 hvcurveto
          -32 callsubr
          250 -66.00999450683594 -105 callsubr
          endchar
        </CharString>
        <CharString name="Gcaron">
          83 -70 callgsubr
          hstem
          92 280 vstem
          951.9900054931641 59 callsubr
          -198 -1036.990005493164 -21 callgsubr
          141 128 callgsubr
          -36 46.99000549316406 hvcurveto
          68.00999450683594 250 -66 -105 callsubr
          endchar
        </CharString>
        <CharString name="Gcircumflex">
          83 -70 callgsubr
          115.010009765625 282 callsubr
          92 280 hintmask 11101100
          942 1793.990005493164 rmoveto
          -31 callgsubr
          hintmask 11110100
          26 callsubr
          hintmask 11101100
          177 callsubr
          rlineto
          -188 -1223.990005493164 -21 callgsubr
          141 128 callgsubr
          -36 46.99000549316406 hvcurveto
          68.00999450683594 250 -66 -105 callsubr
          endchar
        </CharString>
        <CharString name="Gcommaaccent">
          89 34 callgsubr
          441 209.97999572753906 376.00001525878906 219.99000549316406 531.9999847412109 224 hstemhm
          98 280 242.99000549316406 71 callgsubr
          hintmask 01111110
          759.9900054931641 570 -21 callgsubr
          140.97999572753906 128 callgsubr
          -36 47 hvcurveto
          -32 callsubr
          250 -66.00999450683594 -105 callsubr
          -60 -613.9900054931641 rmoveto
          280 callsubr
          310 callsubr
          22 callgsubr
          -2.9900054931640625 -60 callgsubr
          rlineto
          hintmask 11111110
          -2 callsubr
          hintmask 01111110
          33 callgsubr
          endchar
        </CharString>
        <CharString name="Gdotaccent">
          89 -70 callgsubr
          108 151 callsubr
          98 280 364.99000549316406 210 callgsubr
          vstem
          318 callgsubr
          1653.990005493164 rmoveto
          110 72 171 callsubr
          -57 63 -97.02000427246094 hhcurveto
          -94.99000549316406 207 callgsubr
          57 callsubr
          -9 callgsubr
          -2 64 -65 82 hhcurveto
          -127 -1083.990005493164 -21 callgsubr
          140.97999572753906 128 callgsubr
          -36 47 hvcurveto
          -32 callsubr
          250 -66.00999450683594 -105 callsubr
          endchar
        </CharString>
        <CharString name="Gtilde">
          83 -70 callgsubr
          84 -41 callsubr
          92 280 hintmask 00000000
          hintmask 11110010
          751.9799957275391 59 callgsubr
          hintmask 11101110
          -7 callgsubr
          -43.99000549316406 hvcurveto
          109 callsubr
          -110.02000427246094 rlineto
          hintmask 11110010
          306 callgsubr
          hintmask 11101010
          322 callgsubr
          -450.00999450683594 rmoveto
          181 141 128 callgsubr
          -36 46.99000549316406 hvcurveto
          68.00999450683594 250 -66 -105 callsubr
          -97 callsubr
          endchar
        </CharString>
        <CharString name="H">
          154 0 43 614.9799957275391 197.00999450683594 634.0400085449219 -103 callgsubr
          hstem
          279 callsubr
          1328 vstem
          1134.979995727539 1530 15 callsubr
        </CharString>
        <CharString name="Hbar">
          160 0 43 473.99000549316406 0 callgsubr
          241.00999450683594 0 callgsubr
          331.04998779296875 -103 callgsubr
          hstem
          167 callsubr
          1550.990005493164 vstem
          1576.979995727539 1157.979995727539 rmoveto
          -202 hlineto
          50 372.02000427246094 rlineto
          -278.02000427246094 hlineto
          189 callsubr
          174 callsubr
          -568 hlineto
          50 372.02000427246094 11 callgsubr
          -50 174 callsubr
          -208 hlineto
          -19 4 callsubr
          rlineto
          200 hlineto
          -129 -957.9900054931641 -40 callgsubr
          70 517 rlineto
          568.0200042724609 hlineto
          -70 -517 rlineto
          278 hlineto
          129 957.9900054931641 rlineto
          209 232 callsubr
          0 callgsubr
          rlineto
          -539 -441 rmoveto
          -567.9900054931641 hlineto
          98 callgsubr
          241 rlineto
          568.0099945068359 hlineto
          -32 -241 rlineto
          endchar
        </CharString>
        <CharString name="Hcircumflex">
          154 0 43 614.9799957275391 197.00999450683594 634.0400085449219 -103 callgsubr
          173 callsubr
          279 callsubr
          1328 hintmask 11101100
          914.9799957275391 1793.990005493164 rmoveto
          35 callgsubr
          hintmask 11110100
          26 callsubr
          hintmask 11101100
          113 -72 204 callgsubr
          205 rlineto
          220 323 callsubr
          15 callsubr
        </CharString>
        <CharString name="I">
          -658 113 callsubr
          -30 callsubr
          481.99000549316406 vstem
          319 1530 -93 callgsubr
          endchar
        </CharString>
        <CharString name="I.uc">
          -46 callsubr
        </CharString>
        <CharString name="IJ">
          -18 113 callsubr
          -30 callsubr
          1121.990005493164 vstem
          319 1530 -37 callsubr
        </CharString>
        <CharString name="IJ_acutecomb">
          -18 -87 callgsubr
          276 callsubr
          43 -42.00999450683594 43 hstemhm
          -30 callsubr
          1351 hintmask 11011000
          395 -42 callgsubr
          hintmask 11101000
          624.9900054931641 -0.9799957275390625 303 callgsubr
          -93.02999877929688 115 callsubr
          294 callsubr
          -277.00999450683594 -342 rlineto
          -700.9900054931641 -134 -37 callsubr
        </CharString>
        <CharString name="Iacute">
          -658 -87 callgsubr
          135 43 hstem
          -30 callsubr
          725.9900054931641 vstem
          395 -42 callgsubr
          -76 -134.99000549316406 -93 callgsubr
          endchar
        </CharString>
        <CharString name="Ibreve">
          -658 -87 callgsubr
          265 callsubr
          hstem
          171.99000549316406 84 callgsubr
          vstem
          171.99000549316406 259 callgsubr
          272 callsubr
          226 113 176 157 11 vhcurveto
          1 11 26 callgsubr
          -24 callsubr
          -113.99000549316406 -133.02000427246094 hhcurveto
          -122 -24.990005493164062 72 74 82 callsubr
          220 callgsubr
          -12 244 callsubr
          29 callsubr
          147 -414.99000549316406 -93 callgsubr
          endchar
        </CharString>
        <CharString name="Icircumflex">
          -658 -87 callgsubr
          173 callsubr
          -30 callsubr
          734 hintmask 00000000
          hintmask 11101000
          117.99000549316406 152 callsubr
          hintmask 11011000
          113 -72 299.99000549316406 205 35 callgsubr
          hintmask 11101000
          -349 -346.00999450683594 rlineto
          hintmask 11011000
          201 51 callgsubr
          -93 callgsubr
          endchar
        </CharString>
        <CharString name="Idieresis">
          -658 -87 callgsubr
          276 callsubr
          -43 callgsubr
          -241.99000549316406 -277 -93 callgsubr
          endchar
        </CharString>
        <CharString name="Idotaccent">
          -46 callsubr
        </CharString>
        <CharString name="Igrave">
          -658 -87 callgsubr
          135 43 hstem
          -30 callsubr
          481.99000549316406 vstem
          134.97999572753906 283 callgsubr
          -5 callsubr
          287 callgsubr
          -42 callsubr
          -36 108 93 rcurveline
          -277 246 callsubr
          154 callgsubr
          -157 rlineto
          184.02000427246094 -320 -93 callgsubr
          endchar
        </CharString>
        <CharString name="Imacron">
          -658 -87 callgsubr
          187.989990234375 12 callsubr
          hstem
          -30 callsubr
          637 vstem
          205.99000549316406 174 callgsubr
          -12 -179 rlineto
          543 hlineto
          13 179 rlineto
          -544.0099945068359 hlineto
          160 callgsubr
          -366.99000549316406 -93 callgsubr
          endchar
        </CharString>
        <CharString name="Iogonek">
          -658 127 callsubr
          282.00999450683594 -84 callsubr
          hstem
          -142 241 callsubr
          vstem
          246 callgsubr
          hmoveto
          -50 callsubr
          hlineto
          205.99000549316406 1530 rlineto
          -275.97999572753906 hlineto
          38 callsubr
          7 86 callgsubr
          132.99000549316406 131.02000427246094 71 callsubr
          49 60 61 vhcurveto
          -46 91 callgsubr
          rlineto
          -42 -56 -40 -13 -45 hhcurveto
          -31 102 callgsubr
          endchar
        </CharString>
        <CharString name="Itilde">
          -658 -87 callgsubr
          99.989990234375 -41 callsubr
          93.97999572753906 844 hintmask 11011100
          93.97999572753906 1792 rmoveto
          159 callgsubr
          -110.02000427246094 310 callgsubr
          49 66.00999450683594 -1 rlinecurve
          hintmask 11100100
          52 callsubr
          hintmask 11011100
          191 callgsubr
          225.02000427246094 -262 -93 callgsubr
          endchar
        </CharString>
        <CharString name="J">
          -661 1489.0299987792969 -103 callgsubr
          hstem
          -175 766.9900054931641 vstem
          314.97999572753906 1530 3 callgsubr
        </CharString>
        <CharString name="Jcircumflex">
          -661 1489.0299987792969 -103 callgsubr
          173 callsubr
          -175 1007.9799957275391 hintmask 00000000
          hintmask 11010000
          104 152 callsubr
          hintmask 10110000
          177 callsubr
          -31 callgsubr
          hintmask 11010000
          26 callsubr
          hintmask 10110000
          210.99000549316406 51 callgsubr
          3 callgsubr
        </CharString>
        <CharString name="K">
          -10 -1 43 -42 -84 callsubr
          hstemhm
          -23 callgsubr
          1302.990005493164 hintmask 01110000
          783.9900054931641 192 callsubr
          109 callsubr
          719.0099945068359 rlineto
          -276 hlineto
          261 callgsubr
          62 169 callgsubr
          hintmask 10110000
          76 -156 68 -140 18 -4 callgsubr
          328.00999450683594 258 callsubr
          -66.00999450683594 125.00999450683594 rrcurveto
          hintmask 01110000
          -27 callgsubr
          219 callsubr
          -74 callsubr
          179 157 callsubr
          166 rrcurveto
          endchar
        </CharString>
        <CharString name="Kcommaaccent">
          -4 298 callgsubr
          453.97999572753906 43 -42 -84 callsubr
          hstemhm
          547.9799957275391 225 hintmask 01011100
          790 192 callsubr
          97 719.0099945068359 rlineto
          -276.00999450683594 hlineto
          261 callgsubr
          62.02000427246094 169 callgsubr
          hintmask 01101100
          76 -156 68 -140 18 -4 callgsubr
          328 258 callsubr
          -66 125.00999450683594 rrcurveto
          hintmask 01011100
          -27 callgsubr
          219 callsubr
          -90 179 157 callsubr
          166 rrcurveto
          -163 -894.9900054931641 rmoveto
          280 callsubr
          89 callgsubr
          -74 rlineto
          40 -6 30 -51 -48 vvcurveto
          -74 187 callsubr
          -40 -35 -25 233 callsubr
          -60 callgsubr
          rlineto
          hintmask 11011100
          265 callgsubr
          91 18 115.02000427246094 115 167 vvcurveto
          hintmask 01011100
          101.00999450683594 -60 -25 callgsubr
          -86 19 vhcurveto
          endchar
        </CharString>
        <CharString name="L">
          -278 79 callgsubr
          234 callgsubr
          839.9799957275391 vstem
          205 callgsubr
          1530 -69 callgsubr
          -276 hlineto
          endchar
        </CharString>
        <CharString name="Lacute">
          -272 79 callgsubr
          137 43 hstem
          109 callsubr
          839.9799957275391 vstem
          402.97999572753906 1666.990005493164 261 callsubr
          135.99000549316406 57 106 rlinecurve
          294 callsubr
          135 callgsubr
          -342 rlineto
          -100 -137 -69 callgsubr
          -44 callsubr
          hlineto
          endchar
        </CharString>
        <CharString name="Lcaron">
          -272 79 callgsubr
          hstem
          852.9900054931641 223 vstem
          811.9900054931641 2 callgsubr
          -515.0099945068359 465.02000427246094 -69 callgsubr
          -276 hlineto
          endchar
        </CharString>
        <CharString name="Lcommaaccent">
          -272 298 callgsubr
          454.97999572753906 87 callgsubr
          hstemhm
          403.97999572753906 71 callgsubr
          hintmask 01111000
          316 callsubr
          1530 -69 callgsubr
          -44 callsubr
          hlineto
          31 -1758 rmoveto
          40 -6 30 -51 -48 vvcurveto
          -74 187 callsubr
          -40 -35 -25 vhcurveto
          -3 -60 callgsubr
          rlineto
          hintmask 11111000
          -8 callgsubr
          -60 rlineto
          91 18 115 115 167 vvcurveto
          101.00999450683594 0 callsubr
          -25 callgsubr
          -5 callgsubr
          19 vhcurveto
          -139.97999572753906 -112 rlineto
          hintmask 01111000
          89 callgsubr
          -74 rlineto
          endchar
        </CharString>
        <CharString name="Ldot">
          -165 0 71 callgsubr
          523 320 421.0399932861328 -103 callgsubr
          hstem
          783.9900054931641 246 callgsubr
          vstem
          205 callgsubr
          1530 -69 callgsubr
          -276 hlineto
          669 -462 rmoveto
          -111.99000549316406 -70 -74 callsubr
          -97 -9 callgsubr
          56 -10 callsubr
          81 112 -25 callsubr
          74 116 69 -37.99000549316406 61 90 callsubr
          hvcurveto
          endchar
        </CharString>
        <CharString name="Lslash">
          -272 247 callgsubr
          225 125 callsubr
          hstem
          -41 977.9799957275391 vstem
          402.97999572753906 221.97999572753906 rmoveto
          59 438 435 165 -46 159.99000549316406 -363.99000549316406 -141 92 687 11 callgsubr
          217 callsubr
          -799.9900054931641 -235.99000549316406 -92 46.97999572753906 -151 165 62 -74 -549.0099945068359 rlineto
          808 hlineto
          98 callgsubr
          229 -534 157 callgsubr
          rlineto
          endchar
        </CharString>
        <CharString name="M">
          284 callgsubr
          hstemhm
          1534.9700012207031 210 hintmask 01110000
          407.97999572753906 1530 146 callgsubr
          hintmask 10110000
          91 callsubr
          hintmask 01110000
          47 callgsubr
        </CharString>
        <CharString name="N">
          149 113 callsubr
          90.99000549316406 1322.979995727539 vstem
          205 callgsubr
          1530 -78 callgsubr
          -265 hlineto
          -71 callsubr
          endchar
        </CharString>
        <CharString name="NULL">
          -1301 endchar
        </CharString>
        <CharString name="Nacute">
          155 -87 callgsubr
          135 43 hstem
          109 callsubr
          1322.979995727539 vstem
          793.9900054931641 1664.979995727539 rmoveto
          108 -93 -42 callsubr
          178 callsubr
          166 callgsubr
          rlineto
          -491 -134.99000549316406 -81 callsubr
          endchar
        </CharString>
        <CharString name="Ncaron">
          155 113 callsubr
          109 callsubr
          1322.979995727539 vstem
          535 -31 callsubr
          178 226 callgsubr
          223 callgsubr
          201 callsubr
          -232.02000427246094 -394 -81 callsubr
          endchar
        </CharString>
        <CharString name="Ncommaaccent">
          155 165 callgsubr
          1446.0299987792969 -6 callgsubr
          587.9799957275391 225 hintmask 01111000
          316 callsubr
          1530 -81 callsubr
          215 -1759.990005493164 rmoveto
          40.02000427246094 -6 29.990005493164062 -51.02000427246094 -47.99000549316406 vvcurveto
          -74.02000427246094 -33 -40 -35 -25 233 callsubr
          -60 callgsubr
          rlineto
          hintmask 11111000
          265 callgsubr
          91.00999450683594 18 115 92 callsubr
        </CharString>
        <CharString name="Ntilde">
          155 -87 callgsubr
          99.989990234375 -41 callsubr
          109 callsubr
          1322.979995727539 hintmask 11011100
          492.99000549316406 195 callsubr
          44 64 callgsubr
          -78 hhcurveto
          hintmask 11011100
          -7 callgsubr
          -44 hvcurveto
          -190 -262 -81 callsubr
          endchar
        </CharString>
        <CharString name="O">
          -57 callsubr
          -34 callgsubr
          87 593.9799957275391 -106 callsubr
        </CharString>
        <CharString name="OE">
          858 -95 callsubr
          208.97999572753906 -192.989990234375 -77 callsubr
          -195.010009765625 211 hstemhm
          80 callsubr
          hintmask 01110100
          2101.990005493164 1314 rmoveto
          22 216 rlineto
          -840.9900054931641 hlineto
          -33 -247 rlineto
          hintmask 10101100
          158 207 callgsubr
          208 callgsubr
          105 -211 325 callgsubr
          -526 5.0200042724609375 hvcurveto
          -333.99000549316406 -98 callsubr
          172 -275.97999572753906 347.00999450683594 hhcurveto
          205.99000549316406 170 91.97000122070312 151 123 hvcurveto
          hintmask 01110100
          -31 -226.97999572753906 rlineto
          946.0099945068359 hlineto
          25.009994506835938 14 callgsubr
          -666.0099945068359 -13 63 474.00999450683594 432 -12 24 221 -428.00999450683594 -6 -5 callsubr
          432 571.9900054931641 -5 rlineto
          hintmask 10101100
          -1462.990005493164 -1121.020004272461 rmoveto
          -176 -87 120.02000427246094 309 -4 hvcurveto
          -83 callgsubr
          -55 callgsubr
          endchar
        </CharString>
        <CharString name="Oacute">
          -57 callsubr
          119.010009765625 43 -34 callgsubr
          775.9900054931641 1664.979995727539 rmoveto
          48 callgsubr
          294 callsubr
          -277.00999450683594 89 callsubr
          rlineto
          -688.9900054931641 -1071 -106 callsubr
        </CharString>
        <CharString name="Obreve">
          -57 callsubr
          85 182 hstem
          80 callsubr
          180 84 callgsubr
          329.99998474121094 268 callsubr
          552 1944.990005493164 rmoveto
          49 callsubr
          226 160 callgsubr
          176 157 11 vhcurveto
          1 11 26 callgsubr
          137 callsubr
          3 callsubr
          -161 hlineto
          -98 callgsubr
          283 callsubr
          -465 -1351 -106 callsubr
        </CharString>
        <CharString name="Ocircumflex">
          -57 callsubr
          115.010009765625 282 callsubr
          -34 callsubr
          hintmask 00000000
          hintmask 11101100
          499 152 callsubr
          hintmask 11011100
          177 callsubr
          -31 callgsubr
          hintmask 11101100
          26 callsubr
          hintmask 11011100
          -412 -1067 -106 callsubr
        </CharString>
        <CharString name="Odieresis">
          -57 callsubr
          118.02000427246094 -17 callsubr
          hstemhm
          80 callsubr
          122.989990234375 302.02000427246094 143.99000549316406 303 -194.010009765625 -66 callsubr
          hintmask 11111010
          494.97999572753906 76 callgsubr
          -72 callgsubr
          200 callsubr
          83 callsubr
          hhcurveto
          179 callgsubr
          2 127 callgsubr
          -54 37 callsubr
          -27 callgsubr
          -72 -77 -93 -3 hvcurveto
          hintmask 11111100
          446.00999450683594 66 callsubr
          -854 -1213.009994506836 -74 callgsubr
          hintmask 11111010
          60 callsubr
          166 callsubr
          521 -4 hvcurveto
          334 -98 callgsubr
          -171 278 -343 hhcurveto
          hintmask 11111100
          -442 -294.00999450683594 -426 -526 5.0200042724609375 hvcurveto
          hintmask 11111010
          962.9900054931641 315 rmoveto
          -55 callgsubr
          -176 -87 120.02000427246094 309 -4 hvcurveto
          -83 callgsubr
          endchar
        </CharString>
        <CharString name="Ograve">
          -57 callsubr
          119.010009765625 43 -34 callgsubr
          515.9900054931641 283 callgsubr
          57 -106 183 -136 -25 callgsubr
          -36 275 callsubr
          93 rcurveline
          135 callgsubr
          246 callsubr
          -167 -157 rlineto
          -429 -1256.020004272461 -106 callsubr
        </CharString>
        <CharString name="Ohungarumlaut">
          -57 callsubr
          89 43 -34 callgsubr
          514.9900054931641 164 callsubr
          196.02000427246094 164 52 116 rlinecurve
          -158 130 -298 40 callgsubr
          5 callsubr
          116 rlinecurve
          -157 131 -299 174 callsubr
          -882 -1041 -106 callsubr
        </CharString>
        <CharString name="Omacron">
          -57 callsubr
          172 12 callsubr
          -34 callgsubr
          587 53 callsubr
          -500 -1303 -106 callsubr
        </CharString>
        <CharString name="Oslash">
          224 callgsubr
          -34 callgsubr
          1334.990005493164 934.9900054931641 -91 callgsubr
        </CharString>
        <CharString name="Oslashacute">
          224 callgsubr
          118 43 -34 callgsubr
          1171.990005493164 283 callgsubr
          294 callsubr
          -277.00999450683594 89 callsubr
          48 callgsubr
          163 -915 -91 callgsubr
        </CharString>
        <CharString name="Otilde">
          -57 callsubr
          84 -41 callsubr
          -34 callsubr
          hintmask 11011110
          473.99000549316406 195 callsubr
          121 callsubr
          49 66 -1 rlinecurve
          hintmask 11100110
          308 callsubr
          132 98.02000427246094 98 37 hvcurveto
          155 callsubr
          117 rlineto
          -50 292 callsubr
          -39 -60 -9 callgsubr
          hhcurveto
          hintmask 11011110
          -7 callgsubr
          -44 hvcurveto
          -386.99000549316406 -1198.020004272461 -106 callsubr
        </CharString>
        <CharString name="P">
          -62 0 43 460.99000549316406 210 635 209 callgsubr
          10 callgsubr
          hstemhm
          966.9799957275391 275 hintmask 00000000
          hintmask 11011000
          205 callgsubr
          1530 82 callgsubr
          327 callgsubr
          hintmask 11101000
          279 286 callsubr
          hintmask 11011000
          -121 -102.99000549316406 -16 -88 hhcurveto
          -136 hlineto
          258 callgsubr
          hintmask 11101000
          100 callsubr
          hintmask 11011000
          -17 callgsubr
          -250 -109.02000427246094 -142 -237 -72 callgsubr
          rrcurveto
          endchar
        </CharString>
        <CharString name="Q">
          86 -390 230.99000549316406 147.00999450683594 43 -38 43 -43 0 callgsubr
          1141.989990234375 211 hstemhm
          80 callsubr
          152.88999938964844 192.10000610351562 332.99998474121094 -66 callsubr
          hintmask 10101111
          716.9799957275391 -7 rmoveto
          383 64 239 400 -4 477 rrcurveto
          334 -98 callgsubr
          -171 278 -343 325 callgsubr
          -526 5.0200042724609375 hvcurveto
          hintmask 11001111
          -98 callsubr
          -309.97999572753906 148 -260.02000427246094 204 callgsubr
          -35.97999572753906 rrcurveto
          -280 128 callgsubr
          208 -98 212 hhcurveto
          120 173 35 45 54 hvcurveto
          277 callsubr
          vlineto
          168 callgsubr
          -64 90 callsubr
          -7 -86 hhcurveto
          hintmask 10101111
          -145 -124.99000549316406 130 callgsubr
          138 303 callsubr
          hintmask 10011111
          -344.99000549316406 629 rmoveto
          -83 callgsubr
          -55 callgsubr
          -176 -87 120.02000427246094 309 -4 hvcurveto
          endchar
        </CharString>
        <CharString name="R">
          6 -1 -3 callsubr
          hstemhm
          324 callgsubr
          280 hintmask 01110100
          913.9799957275391 659.9900054931641 -26 callgsubr
          hintmask 01101100
          -124.99000549316406 211 callgsubr
          -16 -116.97999572753906 hhcurveto
          -152 -51 callsubr
          hintmask 10110100
          -5 callsubr
          -183 23.990005493164062 -82 27.009994506835938 48 callsubr
          -33 84 -94 255 rrcurveto
          hintmask 01110100
          34 callsubr
          -114.02000427246094 -45 callsubr
          endchar
        </CharString>
        <CharString name="Racute">
          6 -1 -3 callsubr
          135 43 hstemhm
          324 callgsubr
          280 hintmask 01110110
          1151 -14 callsubr
          -237.02000427246094 -1190.009994506836 -26 callgsubr
          hintmask 01101110
          -124.99000549316406 211 callgsubr
          -16 -116.97999572753906 hhcurveto
          -152 -51 callsubr
          hintmask 10110110
          -5 callsubr
          -183 23.990005493164062 -82 27.009994506835938 48 callsubr
          -33 84 -94 255 rrcurveto
          hintmask 01110110
          34 callsubr
          -114.02000427246094 -45 callsubr
          endchar
        </CharString>
        <CharString name="Rcaron">
          12 -1 -3 callsubr
          hstemhm
          981.9900054931641 280 hintmask 01110100
          858.9900054931641 59 callsubr
          136 callsubr
          -947 -26 callgsubr
          hintmask 01101100
          -124.99000549316406 211 callgsubr
          -16 -117 hhcurveto
          -151.99000549316406 -51 callsubr
          hintmask 10110100
          57 -183 24 -82 27.020004272460938 48 callsubr
          187 callsubr
          84 -94 255 rrcurveto
          hintmask 01110100
          34 callsubr
          107 callgsubr
          -45 callsubr
          endchar
        </CharString>
        <CharString name="Rcommaaccent">
          12 34 callgsubr
          455.99000549316406 -3 callsubr
          hstemhm
          549.9900054931641 71 callgsubr
          207.00999450683594 280 hintmask 0101110110000000
          919.9799957275391 659.9900054931641 -26 callgsubr
          hintmask 0101101110000000
          -124.99000549316406 211 callgsubr
          -16 -117 hhcurveto
          -151.99000549316406 -51 callsubr
          hintmask 0110110110000000
          57 -183 24 -82 27.020004272460938 48 callsubr
          187 callsubr
          84 -94 255 rrcurveto
          hintmask 0101110110000000
          34 callsubr
          107 callgsubr
          -45 callsubr
          -64 -870.9700012207031 rmoveto
          280 callsubr
          -9 -74 rlineto
          -38 callsubr
          hintmask 1101110110000000
          -2 callsubr
          hintmask 0101110110000000
          100.99000549316406 0 callsubr
          -42 callsubr
          -5 callgsubr
          19 vhcurveto
          endchar
        </CharString>
        <CharString name="S">
          -250 19 callgsubr
          hstem
          101 callsubr
          vstem
          99.97999572753906 302 -102 callgsubr
        </CharString>
        <CharString name="Sacute">
          -250 19 callgsubr
          63 callsubr
          43 hstem
          101 callsubr
          vstem
          600.9900054931641 1664.979995727539 rmoveto
          48 callgsubr
          294 callsubr
          -277.00999450683594 89 callsubr
          rlineto
          -501 -1362.990005493164 -102 callgsubr
        </CharString>
        <CharString name="Scaron">
          -250 19 callgsubr
          hstem
          101 callsubr
          vstem
          342 1923.990005493164 rmoveto
          281 callgsubr
          170 callsubr
          -116 -83 rlineto
          -242.02000427246094 -1622 -102 callgsubr
        </CharString>
        <CharString name="Scedilla">
          -250 -468 194 258.00999450683594 218.99000549316406 -207 43 1291.990005493164 214.99000549316406 hstemhm
          175.97999572753906 268 -71.989990234375 156 callgsubr
          84.99998474121094 284.02000427246094 hintmask 10111010
          655.9900054931641 861.9799957275391 rmoveto
          -140 101.00999450683594 -77 69 5 128 rrcurveto
          121 4.0200042724609375 104.97999572753906 50.02000427246094 124 hhcurveto
          88 120 -30 -56 55 hvcurveto
          87 215.99000549316406 rlineto
          37 -51 -120.00999450683594 48 -181 hhcurveto
          -296 -205.99000549316406 -164 -269 106 callsubr
          -204 146 -135 91 callgsubr
          -97 rrcurveto
          hintmask 11010110
          155.02000427246094 -109 48.99000549316406 -71 -1 -100 rrcurveto
          98 callsubr
          -47 callsubr
          -105 -64 -155.02000427246094 hhcurveto
          -113.99000549316406 -139 53.99000549316406 45.02000427246094 -50.02000427246094 hvcurveto
          -88 -224 43 -35 162 -53.97999572753906 154 -5 rlinecurve
          -82 callsubr
          137 callsubr
          0 -39 -47 callsubr
          -36 rrcurveto
          -126 -3 84 callsubr
          53 hhcurveto
          183.99000549316406 105 87 241 callgsubr
          hvcurveto
          hintmask 10110110
          -75 callsubr
          -15 81 168 callgsubr
          50.02000427246094 vhcurveto
          243 41.97999572753906 163 148 -72 callgsubr
          254 rrcurveto
          hintmask 10111010
          -2 199 -158 125.99000549316406 -132 97 rrcurveto
          endchar
        </CharString>
        <CharString name="Scircumflex">
          -250 19 callgsubr
          115.00999450683594 282 callsubr
          101 callsubr
          hintmask 00000000
          hintmask 11101100
          323.99000549316406 152 callsubr
          hintmask 11011100
          177 callsubr
          197 4 callsubr
          119 73 -201 340 rlineto
          -179 hlineto
          hintmask 11101100
          26 callsubr
          hintmask 11011100
          -224 -1358.990005493164 -102 callgsubr
        </CharString>
        <CharString name="Scommaaccent">
          -244 34 callgsubr
          441 218.99000549316406 1127.990005493164 214.99000549316406 hstemhm
          182 callsubr
          268 -72 71 callgsubr
          66.99998474121094 284.02000427246094 hintmask 01111010
          105.97999572753906 302 rmoveto
          -88 -224 rlineto
          -37 45.02000427246094 175 -56.970001220703125 161 hhcurveto
          -57 callgsubr
          -114 -139 53.99000549316406 45.02000427246094 -50.02000427246094 hvcurveto
          hintmask 01110110
          202.02000427246094 -531.9900054931641 rmoveto
          22 callgsubr
          -2.9900054931640625 -60 callgsubr
          rlineto
          hintmask 11110110
          265 callgsubr
          91.02000427246094 18 115 144 callsubr
          hintmask 01110110
          282 callgsubr
        </CharString>
        <CharString name="T">
          -163 0 149 callgsubr
          hstem
          132.99000549316406 1088 vstem
          525.9900054931641 1324.990005493164 -47 callgsubr
          endchar
        </CharString>
        <CharString name="Tbar">
          -157 0 43 635.9900054931641 203 callsubr
          450.5299835205078 210.49000549316406 hstem
          138.99000549316406 1088 vstem
          1196.990005493164 1314 rmoveto
          30 216 rlineto
          -1055 hlineto
          116 callsubr
          -60.99000549316406 -456 rlineto
          -252 hlineto
          -23 -190 rlineto
          249 hlineto
          -90.99000549316406 -678.9900054931641 rlineto
          279 hlineto
          -23 callgsubr
          678.9900054931641 rlineto
          261 hlineto
          23 190 rlineto
          -257.97999572753906 hlineto
          136 callsubr
          456 386 -11 rlineto
          endchar
        </CharString>
        <CharString name="Tcaron">
          -157 0 149 callgsubr
          hstem
          138.99000549316406 1088 vstem
          384.97999572753906 66 callgsubr
          147 -599 -47 callgsubr
          endchar
        </CharString>
        <CharString name="Thorn">
          -43 0 43 220.97999572753906 211 620 198 196.0500030517578 -103 callgsubr
          hstem
          938.9799957275391 274 vstem
          1212.990005493164 884.9799957275391 rmoveto
          273 286 callsubr
          -62 -58 244 callsubr
          -5 -53 hvcurveto
          33.02000427246094 246 rlineto
          -279.02000427246094 hlineto
          -203.99000549316406 -1530 rlineto
          279.97999572753906 hlineto
          36 274.97999572753906 rlineto
          -98 callgsubr
          107 callsubr
          64 -8 186 callgsubr
          hhcurveto
          394 245 260 361 -4 hvcurveto
          -274 -23.990005493164062 rmoveto
          157 callgsubr
          -244.02000427246094 -110 291 callsubr
          -237 -1 -48.99000549316406 -1 137 callgsubr
          6 -30 221 callsubr
          79.00999450683594 594.9900054931641 rcurveline
          -47 callsubr
          vlineto
          9 77 callgsubr
          -50 callsubr
          3.9900054931640625 40 hhcurveto
          0 callgsubr
          77 242 callsubr
          -149 -6 hvcurveto
          endchar
        </CharString>
        <CharString name="U">
          -70 callsubr
          199 callgsubr
          143.99000549316406 594.9799957275391 -107 callgsubr
        </CharString>
        <CharString name="Uacute">
          -70 callsubr
          135 43 199 callgsubr
          758.9900054931641 197 callsubr
          96.02000427246094 178 callsubr
          166 callgsubr
          rlineto
          -615 -1070 -107 callgsubr
        </CharString>
        <CharString name="Ubreve">
          -70 callsubr
          265 callsubr
          143 callsubr
          122.989990234375 168.00999450683594 vstem
          535.9799957275391 259 callgsubr
          228 226 -30 callsubr
          176 157 11.020004272460938 vhcurveto
          204 callsubr
          11 0 11 11 vvcurveto
          -157.99000549316406 hlineto
          -70 -18 137 callsubr
          3 callsubr
          315 callgsubr
          hlineto
          -98 callgsubr
          -12 138 callsubr
          29 callsubr
          -391.99000549316406 -1350 -107 callgsubr
        </CharString>
        <CharString name="Ucircumflex">
          -70 callsubr
          173 callsubr
          50 callsubr
          282 hintmask 00000000
          hintmask 11101000
          482 152 callsubr
          hintmask 11011000
          -30 callsubr
          -72 300.02000427246094 205 -31 callgsubr
          hintmask 11101000
          -349 -346.00999450683594 rlineto
          hintmask 11011000
          -338 -1066 -107 callgsubr
        </CharString>
        <CharString name="Udieresis">
          -70 callsubr
          276 callsubr
          312.99000549316406 143 callsubr
          65.989990234375 272 callgsubr
          144.02000427246094 316 callsubr
          vstem
          478.99000549316406 76 callgsubr
          -72 callgsubr
          200 callsubr
          232 callgsubr
          104.02000427246094 74 callsubr
          -89.00999450683594 63 callgsubr
          -77 -93 -3 hvcurveto
          446.00999450683594 hmoveto
          -74 -1 110 callgsubr
          -69 72 hhcurveto
          161 callsubr
          -86 hhcurveto
          -88 -74.02000427246094 -77 -93 132 callsubr
          -781 -1212.009994506836 -107 callgsubr
        </CharString>
        <CharString name="Ugrave">
          -70 callsubr
          135 43 199 callgsubr
          499 283 callgsubr
          57 287 callgsubr
          96.02000427246094 -36 -36 callgsubr
          93 rcurveline
          -277 246 callsubr
          274 callsubr
          -157 rlineto
          -355 -1255.020004272461 -107 callgsubr
        </CharString>
        <CharString name="Uhungarumlaut">
          -70 callsubr
          104.989990234375 43 199 callgsubr
          497.99000549316406 164 callsubr
          196 164 52.02000427246094 116 rlinecurve
          -158 130 -298 40 callgsubr
          5 callsubr
          116 rlinecurve
          -157.02000427246094 131 -298.97999572753906 174 callsubr
          -808 -1040 -107 callgsubr
        </CharString>
        <CharString name="Umacron">
          -70 callsubr
          187.989990234375 12 callsubr
          199 callgsubr
          570 53 callsubr
          -426 -1302 -107 callgsubr
        </CharString>
        <CharString name="Uogonek">
          107 127 callsubr
          266.0199890136719 215.97999572753906 1289.0400085449219 -6 callgsubr
          91 callgsubr
          281.97999572753906 -5 callsubr
          236.99000549316406 hintmask 11110000
          1113.990005493164 1530 rmoveto
          -119.00999450683594 -891 rlineto
          -326 -44.99000549316406 -103 -113.00999450683594 -188 hhcurveto
          -159.99000549316406 -77 71 171.99000549316406 220 callgsubr
          hvcurveto
          -5 callsubr
          83 callgsubr
          62 8.990005493164062 -25 callsubr
          vhcurveto
          120.00999450683594 895.0200042724609 11 callgsubr
          -124.99000549316406 -935.0200042724609 157 callgsubr
          -59 -6 -53.99000549316406 1 -52 rlinecurve
          -44 callsubr
          -98 callsubr
          154 -169.97999572753906 323.99000549316406 hhcurveto
          33.02000427246094 98 callgsubr
          1 -98 callsubr
          31 hvcurveto
          hintmask 11111000
          188 callgsubr
          -51 181 callsubr
          -111 7 callgsubr
          165 callsubr
          159 callsubr
          95 49 60 62 vhcurveto
          -46 91 callgsubr
          rlineto
          -42 -56 -40 -13 -46 hhcurveto
          -31 -34 13 56 52 112 -30 callsubr
          94 129 callgsubr
          hvcurveto
          192 80.02000427246094 110.99000549316406 179 43 317.99000549316406 122 918.0200042724609 rcurveline
          hintmask 11110000
          -273 hlineto
          endchar
        </CharString>
        <CharString name="Uring">
          101 -95 callsubr
          215.97999572753906 1268.990005493164 61 -61 123 -102.94999694824219 -103 callgsubr
          355 122 hstemhm
          50 callsubr
          282 110 84 callgsubr
          322.99998474121094 169 hintmask 10011111
          523 1717.990005493164 rmoveto
          hintmask 11001111
          -161 118.99000549316406 -88 186 181 174 92 197 163 -118.99000549316406 86.02000427246094 -172 vhcurveto
          hintmask 10011111
          -158.99000549316406 -210 -36 callsubr
          -210 hvcurveto
          hintmask 10101111
          490.99000549316406 35 rmoveto
          51 callgsubr
          -88 -30 -27 callgsubr
          -9 callgsubr
          128 callgsubr
          59 76 122 109 callsubr
          36 83 80 63 -55 -77 vhcurveto
          -870 -1158 rmoveto
          -8 -59 -6 -53.99000549316406 1 -52 rrcurveto
          -44 callsubr
          -98 callsubr
          154 -169.97999572753906 324 hhcurveto
          383 202.02000427246094 170.97999572753906 456.99000549316406 62 hvcurveto
          hintmask 10011111
          122 918.0200042724609 rlineto
          -273 hlineto
          -118.99000549316406 -891 rlineto
          -326 -45.02000427246094 -102.99000549316406 -113.00999450683594 -188 hhcurveto
          -159.99000549316406 -77 71 171.99000549316406 -98 callgsubr
          hvcurveto
          -5 callsubr
          -98 callsubr
          62 9 -25 callsubr
          vhcurveto
          120.00999450683594 895.0200042724609 11 callgsubr
          hintmask 10101111
          -124.99000549316406 -935.0200042724609 rlineto
          endchar
        </CharString>
        <CharString name="Utilde">
          -70 callsubr
          99.989990234375 -41 callsubr
          50 callsubr
          282 hintmask 11011100
          457.99000549316406 195 callsubr
          121 callsubr
          64 callgsubr
          -9 callgsubr
          hhcurveto
          hintmask 11011100
          -7 callgsubr
          -44 hvcurveto
          -314 -1197.020004272461 -107 callgsubr
        </CharString>
        <CharString name="V">
          -100 0 43 -43 247.99000549316406 1241.0399932861328 -6 callgsubr
          116 1226.990005493164 hintmask 10110000
          116 1530 rmoveto
          238 -1530 rlineto
          310.99000549316406 hlineto
          678.0099945068359 1530 rlineto
          -292 hlineto
          -416.00999450683594 -1040.020004272461 rlineto
          hintmask 01110000
          -82 -241.99000549316406 -21 292 callgsubr
          -140 1040.020004272461 rlineto
          hintmask 10110000
          104 callsubr
          endchar
        </CharString>
        <CharString name="W">
          487 8 callgsubr
          119 callsubr
          1833 hintmask 10110000
          1663 1530 150 callsubr
          hintmask 01110000
          -35 callgsubr
          hintmask 10110000
          212 callgsubr
        </CharString>
        <CharString name="Wacute">
          493 8 callgsubr
          135 43 hstemhm
          117.99000549316406 1833 hintmask 10111000
          1409.990005493164 283 callgsubr
          294 callsubr
          -277.00999450683594 89 callsubr
          48 callgsubr
          259.00999450683594 -320 150 callsubr
          hintmask 01111000
          -80 callgsubr
          hintmask 10111000
          212 callgsubr
        </CharString>
        <CharString name="Wcircumflex">
          487 8 callgsubr
          131 43 -37 43 119 callsubr
          1833 hintmask 10101100
          1095.990005493164 1793.990005493164 rmoveto
          35 callgsubr
          hintmask 10110100
          26 callsubr
          hintmask 10101100
          160 callgsubr
          -72 204 callgsubr
          205 rlineto
          567.0099945068359 323 callsubr
          150 callsubr
          hintmask 01101100
          -35 callgsubr
          hintmask 10101100
          212 callgsubr
        </CharString>
        <CharString name="Wdieresis">
          493 8 callgsubr
          276 callsubr
          -17 callsubr
          hstemhm
          684.9900054931641 272 callgsubr
          143.99998474121094 303 hintmask 10111100
          816.9900054931641 1664 rmoveto
          179 callgsubr
          2 150 callgsubr
          -89 271 callgsubr
          -77 311 callgsubr
          297 callsubr
          72 hhcurveto
          445.00999450683594 hmoveto
          -21 callsubr
          -74 -1 60 -69 72 hhcurveto
          407 -134 150 callsubr
          hintmask 01111100
          -80 callgsubr
          hintmask 10111100
          212 callgsubr
        </CharString>
        <CharString name="Wgrave">
          493 8 callgsubr
          135 43 hstemhm
          117.99000549316406 1833 hintmask 10111000
          1041.979995727539 1571.979995727539 303 callgsubr
          93 -277.00999450683594 246 callsubr
          -167 -157 57 -106 183 -136 -25 callgsubr
          -36 rlinecurve
          627.0200042724609 205 callsubr
          150 callsubr
          hintmask 01111000
          -80 callgsubr
          hintmask 10111000
          212 callgsubr
        </CharString>
        <CharString name="X">
          -100 113 callsubr
          -59 callgsubr
          1400.9700012207031 vstem
          482 800.9900054931641 rmoveto
          -560.9900054931641 -800.9900054931641 rlineto
          317.9700012207031 hlineto
          358.00999450683594 575 225 -576 307 1 -347 744 540 786 rlineto
          -304.97999572753906 hlineto
          -353.02000427246094 -545.0099945068359 -203 545.0099945068359 rlineto
          -298.97999572753906 hlineto
          320 -729 rlineto
          endchar
        </CharString>
        <CharString name="Y">
          -177 113 callsubr
          129 callgsubr
          1214.009994506836 vstem
          166 callsubr
          589.9900054931641 rmoveto
          -90 callgsubr
          54 callgsubr
        </CharString>
        <CharString name="Yacute">
          -177 -87 callgsubr
          135 43 hstem
          129 callgsubr
          1214.009994506836 vstem
          616 -42 callgsubr
          -187 -1075 rmoveto
          -90 callgsubr
          54 callgsubr
        </CharString>
        <CharString name="Ycircumflex">
          -177 -87 callgsubr
          173 callsubr
          129 callgsubr
          1214.009994506836 hintmask 00000000
          hintmask 11101000
          338.97999572753906 152 callsubr
          hintmask 11011000
          160 callgsubr
          146 callsubr
          63 callsubr
          73 -201.02000427246094 248 callgsubr
          -8 callgsubr
          -1071 rmoveto
          hintmask 11011000
          -90 callgsubr
          hintmask 11101000
          54 callgsubr
        </CharString>
        <CharString name="Ydieresis">
          -177 -87 callgsubr
          276 callsubr
          151 callsubr
          335.99000549316406 272 callgsubr
          143.99998474121094 303 vstem
          335.99000549316406 1806.990005493164 rmoveto
          297 callsubr
          72 hhcurveto
          179 callgsubr
          2 150 callgsubr
          -89 271 callgsubr
          -77 311 callgsubr
          446 hmoveto
          -74 -1 60 -69 72 hhcurveto
          -21 callsubr
          -353 -1217 rmoveto
          -90 callgsubr
          54 callgsubr
        </CharString>
        <CharString name="Ygrave">
          -177 -87 callgsubr
          135 43 hstem
          129 callgsubr
          1214.009994506836 vstem
          355.97999572753906 56 callgsubr
          73.00999450683594 -1260.009994506836 rmoveto
          -90 callgsubr
          54 callgsubr
        </CharString>
        <CharString name="Z">
          17 callsubr
          216 callgsubr
          hintmask 11010000
          13 callgsubr
          156 callsubr
          -20 callgsubr
          rlineto
          hintmask 10110000
          143 callgsubr
          hintmask 11010000
          -50 callgsubr
          125 callgsubr
        </CharString>
        <CharString name="Zacute">
          17 callsubr
          135.00001525878906 43 216 callgsubr
          hintmask 11011000
          678.9900054931641 74 callgsubr
          -705.9799957275391 -1576 -20 callgsubr
          rlineto
          hintmask 10111000
          143 callgsubr
          hintmask 11011000
          -50 callgsubr
          125 callgsubr
        </CharString>
        <CharString name="Zcaron">
          17 callsubr
          216 callgsubr
          hintmask 11010000
          419.97999572753906 66 callgsubr
          -446.9700012207031 -1835 -20 callgsubr
          rlineto
          hintmask 10110000
          143 callgsubr
          hintmask 11010000
          -50 callgsubr
          125 callgsubr
        </CharString>
        <CharString name="Zdotaccent">
          17 callsubr
          123.99000549316406 -17 callsubr
          216 callgsubr
          -609.0199890136719 209 callsubr
          hintmask 00000000
          hintmask 10110100
          610.9700012207031 -35 callsubr
          2 211 callgsubr
          63 -97 hhcurveto
          -95 -59 callgsubr
          -53 callgsubr
          -93 220 callgsubr
          hvcurveto
          -637.9700012207031 -1708.009994506836 -20 callgsubr
          143 callgsubr
          hintmask 11011000
          -50 callgsubr
          rlineto
          hintmask 10110100
          125 callgsubr
        </CharString>
        <CharString name="a">
          -60 callsubr
          118 callgsubr
          hintmask 10110000
          983 1117 rmoveto
          -45 callgsubr
          -94 callgsubr
          hintmask 01110000
          -71 callgsubr
          rlineto
          hintmask 10110000
          -149 -39 rlineto
          -504.00999450683594 -937 -96 callsubr
        </CharString>
        <CharString name="aacute">
          -60 callsubr
          118 callgsubr
          hintmask 10110000
          1131.990005493164 1576.979995727539 rmoveto
          227 callgsubr
          104 -85 120.00999450683594 46 240.99000549316406 227 36 68 rlinecurve
          -386.00999450683594 -420.99000549316406 rmoveto
          -94 callgsubr
          hintmask 01110000
          139 callsubr
          hintmask 10110000
          -45 callgsubr
          -267 -976 -96 callsubr
        </CharString>
        <CharString name="abreve">
          -60 callsubr
          215 callgsubr
          75.97999572753906 287 90.010009765625 84 callgsubr
          hintmask 10111100
          764.9900054931641 1302 rmoveto
          226 113 141 callgsubr
          hvcurveto
          1 11.020004272460938 26 callgsubr
          137 callsubr
          172 callsubr
          -25 72 74 -17 callgsubr
          hvcurveto
          -1 130 callgsubr
          294 callgsubr
          -161 hlineto
          -98 callgsubr
          293 callgsubr
          49 callsubr
          vhcurveto
          218 -185 rmoveto
          -45 callgsubr
          -94 callgsubr
          hintmask 01111100
          -71 callgsubr
          rlineto
          hintmask 10111100
          -149 -39 rlineto
          -504.00999450683594 -937 -96 callsubr
        </CharString>
        <CharString name="acircumflex">
          -60 callsubr
          118 callgsubr
          hintmask 10110000
          791.9799957275391 1438.990005493164 rmoveto
          196.02000427246094 -219 123.99000549316406 68 -200.99000549316406 10 callsubr
          236 callsubr
          rlineto
          191.02000427246094 -321.99000549316406 rmoveto
          -45 callgsubr
          -94 callgsubr
          hintmask 01110000
          -71 callgsubr
          rlineto
          hintmask 10110000
          -149 -39 rlineto
          -504.00999450683594 -937 -96 callsubr
        </CharString>
        <CharString name="acute">
          -739 307 callgsubr
          33.99000549316406 501 vstem
          34 300 callsubr
          120 47 callsubr
          -180.02000427246094 238 callgsubr
          endchar
        </CharString>
        <CharString name="acute.cap">
          -772 1664.990005493164 43 hstem
          186 callsubr
          444 vstem
          186 callsubr
          1664.979995727539 rmoveto
          53 callgsubr
          -167.02000427246094 116 callgsubr
          endchar
        </CharString>
        <CharString name="adieresis">
          -60 callsubr
          209.010009765625 -17 callsubr
          118 callgsubr
          39 303 144.010009765625 303 hintmask 00000000
          hintmask 10111110
          534 1364.990005493164 175 callsubr
          -77 -92 -2 hvcurveto
          -74 -2.9900054931640625 287 callsubr
          478 313 rmoveto
          -93 222 callgsubr
          -77 -92 -30 callgsubr
          -74 -3 61 -70 -25 callsubr
          hhcurveto
          105 64 81 94 3.0200042724609375 127 callgsubr
          -56 106 callgsubr
          -266.02000427246094 -522 rmoveto
          hintmask 10111000
          -94 callgsubr
          hintmask 01111000
          139 callsubr
          hintmask 10111110
          -45 callgsubr
          hintmask 10111000
          -267 -976 -96 callsubr
        </CharString>
        <CharString name="ae">
          78 callgsubr
          1175.979995727539 181.99000549316406 -89 callsubr
        </CharString>
        <CharString name="aeacute">
          78 callgsubr
          1340.990005493164 1574.990005493164 rmoveto
          -180 169 -321 -425 -61 callgsubr
          -165 -1393 -89 callsubr
        </CharString>
        <CharString name="agrave">
          -60 callsubr
          118 callgsubr
          hintmask 10110000
          724.9900054931641 1235.990005493164 rmoveto
          104 13 callsubr
          -311 425.99000549316406 -180.99000549316406 -169 50 213 callgsubr
          258 -118.99000549316406 rmoveto
          -45 callgsubr
          -94 callgsubr
          hintmask 01110000
          -71 callgsubr
          rlineto
          hintmask 10110000
          -149 -39 rlineto
          -504.00999450683594 -937 -96 callsubr
        </CharString>
        <CharString name="amacron">
          -60 callsubr
          261.010009765625 12 callsubr
          118 callgsubr
          hintmask 10111000
          1027.990005493164 1595.990005493164 rmoveto
          -543 hlineto
          -11 263 callgsubr
          11 179 rlineto
          -45 -478.99000549316406 rmoveto
          -45 callgsubr
          -94 callgsubr
          hintmask 01111000
          -71 callgsubr
          rlineto
          hintmask 10111000
          -149 -39 rlineto
          -504.00999450683594 -937 -96 callsubr
        </CharString>
        <CharString name="ampersand">
          249 -18 169 -168 219 callgsubr
          468 190.99000549316406 539.9999847412109 176 hstemhm
          186 callsubr
          275 -26.010009765625 254.99000549316406 324.02000427246094 254.99000549316406 -31.000015258789062 288 callsubr
          hintmask 01111010
          1518 828.9900054931641 rmoveto
          hintmask 01111001
          -367 1 rlineto
          -89 -44 -19 129 callsubr
          -19 hvcurveto
          -10 279 callgsubr
          23 13 35.99000549316406 9.020004272460938 43 3.9900054931640625 rlinecurve
          6 -29 5 -35 -41 vvcurveto
          -89 -28 63 callgsubr
          -47 136 callgsubr
          vhcurveto
          -129 120.02000427246094 -109 151 -91 150 rrcurveto
          hintmask 01110110
          317 callsubr
          63 callsubr
          223 134 249 vvcurveto
          135.99000549316406 -101 172 -279 -281 -173 -187 -241 155 callsubr
          38 -130 46 -104 vhcurveto
          hintmask 01111001
          -177 -100 -156 290 callgsubr
          -199 vvcurveto
          -272 252 -109.99000549316406 190 callgsubr
          316 callgsubr
          117.99000549316406 -9 callsubr
          37.99000549316406 101.00999450683594 vhcurveto
          -40.97999572753906 80 100 -18 70 hhcurveto
          54 100.99000549316406 5 13.979995727539062 46 hvcurveto
          hintmask 10111001
          31 150.02000427246094 rlineto
          -19 -22 0 204 callsubr
          -16 hvcurveto
          -81 2 -60 12 -54 23 rrcurveto
          -42 callsubr
          98 154 callsubr
          134 165 vvcurveto
          19 -47 callsubr
          17.990005493164062 -2 16.020004272460938 vhcurveto
          151 hlineto
          hintmask 01111010
          130 callgsubr
          203 callsubr
          rlineto
          hintmask 01110110
          -964.0200042724609 311.00999450683594 rmoveto
          124.99000549316406 -50 callsubr
          105 109 100 48 -64 -99 -135 -121.02000427246094 -88 -150 -82 vhcurveto
          -60 callgsubr
          61 -27.020004272460938 86 91.00999450683594 vvcurveto
          hintmask 01111010
          -228.99000549316406 -758 rmoveto
          91 64 70 -23 callgsubr
          64 vhcurveto
          -8 callgsubr
          -150 74 -117 156 -153 rrcurveto
          -11 -48 189 callsubr
          -5 -53 hhcurveto
          -169 -154.99000549316406 48 163 hvcurveto
          endchar
        </CharString>
        <CharString name="aogonek">
          -80 127 callsubr
          266.0199890136719 195.99000549316406 -180 43 936.9799957275391 176 hstemhm
          77 callsubr
          287 137.989990234375 241 callsubr
          hintmask 11011100
          811.9900054931641 -282 rmoveto
          137 callsubr
          -34 13 56 hvcurveto
          hintmask 10111100
          69 121 156 callsubr
          105 55 vhcurveto
          221 callsubr
          hlineto
          159 12 callgsubr
          -149 -39 rlineto
          62 callgsubr
          -63 -96.99000549316406 -40 callsubr
          -77 hhcurveto
          -459 -211 -401 -341.02000427246094 hvcurveto
          hintmask 11011100
          -245 91 -184.97000122070312 232.02000427246094 159.99000549316406 117 120.97000122070312 113 65 vhcurveto
          hintmask 10111100
          -14 -217.99000549316406 rlineto
          36 hlineto
          -87 -43 -175 -115 -141 28 callgsubr
          hintmask 11011100
          -42 136 callgsubr
          -40 -13 -45 hhcurveto
          -325 462 rmoveto
          -74 -42 81 175.99000549316406 239 108.99000549316406 304 246 41 40 -4 -10.009994506835938 35 hvcurveto
          -68.00999450683594 -479.99000549316406 rlineto
          -126 -10 callsubr
          -111 -180 -121 hhcurveto
          endchar
        </CharString>
        <CharString name="approxequal">
          -238 260.99000549316406 238 callsubr
          208.99000549316406 85.02000427246094 238 callsubr
          208.99000549316406 hstemhm
          24.990005493164062 1054 hintmask 01011000
          279 callsubr
          902.9799957275391 160 callsubr
          55 callsubr
          hhcurveto
          hintmask 01101000
          148 225 callgsubr
          -78 171.99000549316406 -173 hhcurveto
          hintmask 01011000
          -148 -147 -116 -99 206 callsubr
          hvcurveto
          -60 -471 160 callsubr
          277 callsubr
          hhcurveto
          hintmask 10011000
          220 callsubr
          225 callgsubr
          -9 callgsubr
          171.99000549316406 -173 hhcurveto
          hintmask 01011000
          -148 181 callsubr
          -116 -99 -32 hvcurveto
          endchar
        </CharString>
        <CharString name="aring">
          -60 callsubr
          99.010009765625 124.99000549316406 293.00999450683594 124 118 callgsubr
          108.010009765625 135 callsubr
          323.99998474121094 84 callgsubr
          hintmask 10111111
          770.9900054931641 1254.990005493164 rmoveto
          180 179 94 197 164.99000549316406 290 callgsubr
          86.02000427246094 -173.02000427246094 -158 -209.99000549316406 -81 -210 315 callgsubr
          -30 callsubr
          43 callsubr
          187 hvcurveto
          48 418 rmoveto
          80 63 -55 -53 callgsubr
          -131 -88 -30 43 callsubr
          -78 -68 59 76 122 97 36 13 callsubr
          hvcurveto
          164 -556 rmoveto
          -45 callgsubr
          -94 callgsubr
          hintmask 01111111
          -71 callgsubr
          rlineto
          hintmask 10111111
          -149 -39 rlineto
          -504.00999450683594 -937 -96 callsubr
        </CharString>
        <CharString name="asciicircum">
          63 1490.0199890136719 -103 callgsubr
          hstem
          150.99000549316406 1014.9799957275391 vstem
          671.9900054931641 1530.979995727539 rmoveto
          -520.9900054931641 -1020.9900054931641 rlineto
          225 hlineto
          388 739 181 -739 rlineto
          221 hlineto
          -262 1020.9900054931641 rlineto
          -232 hlineto
          endchar
        </CharString>
        <CharString name="asciitilde">
          -164 695.9900054931641 238 callsubr
          209.00999450683594 hstemhm
          104 993.9900054931641 hintmask 01100000
          104 866.9799957275391 rmoveto
          110 -10 callgsubr
          rlineto
          60 121 callgsubr
          5 callsubr
          52.99000549316406 81 134 63 108 callsubr
          55 callsubr
          hhcurveto
          hintmask 10100000
          148 145 110 110 29 hvcurveto
          -103.02000427246094 106 rlineto
          -70 -47.97999572753906 -63 -42 -81.02000427246094 -121 44 callgsubr
          172 -173.02000427246094 hhcurveto
          hintmask 01100000
          321 callgsubr
          -147 -116.02000427246094 -99 206 callsubr
          hvcurveto
          endchar
        </CharString>
        <CharString name="asterisk">
          65 1108.0199890136719 -103 callgsubr
          -39.94999694824219 -6 callgsubr
          192 1077.979995727539 hintmask 01100000
          192 324 callgsubr
          rmoveto
          92 -189 269.97999572753906 188 116 -23 callgsubr
          -35 291 callsubr
          -68 -311 221 -1 -7 312.00999450683594 -11 140.99000549316406 206 callgsubr
          -90.99000549316406 228.99000549316406 -186 rlineto
          hintmask 10100000
          133 187 -277 123 -124.99000549316406 186 callsubr
          134.97999572753906 51 303 125.00999450683594 -87 219 callgsubr
          -274 -187.99000549316406 -121 -88 38 139 68 311.00999450683594 rlineto
          -215 hlineto
          -98 callsubr
          280 callgsubr
          6 -139 -99 88 -238 187 rlineto
          hintmask 01100000
          -122 -187 277.00999450683594 7 callgsubr
          124.99000549316406 189 callsubr
          -136 -51 -302.97999572753906 -123 rlineto
          endchar
        </CharString>
        <CharString name="at">
          697 -439.99000549316406 12 callsubr
          267.97999572753906 218 callsubr
          -216.97999572753906 192.97999572753906 721.0200042724609 183 callsubr
          278.99998474121094 164 119 callsubr
          198 229.010009765625 236.99000549316406 411.99998474121094 196 330.010009765625 204 hintmask 1011111110000000
          1205.990005493164 1544.990005493164 rmoveto
          -607.9900054931641 -486.02000427246094 -447 -724 -516.9700012207031 340.00999450683594 -297 467 50 callgsubr
          163 46 70 92 hvcurveto
          -46 134 rlineto
          -32 -65 -145 -39 -152 hhcurveto
          -327.99000549316406 -299 55 callsubr
          490.99000549316406 483 324.00999450683594 490 527 297 256 -109 -412 -314 -158 89 callsubr
          -159 158 callgsubr
          -4 240 callsubr
          17 40 0 167 callsubr
          11 103.00999450683594 hvcurveto
          62 callgsubr
          201 41 324.00999450683594 39.02000427246094 152.99000549316406 -180 -30 rcurveline
          39.02000427246094 136 callgsubr
          -109 14.990005493164062 -55 hhcurveto
          -370 -179 -357 -306 -6 hvcurveto
          hintmask 1101111110000000
          -297 -6 164 -135 135 hhcurveto
          220 callsubr
          130 151 213.02000427246094 185 callgsubr
          hvcurveto
          hintmask 1011111110000000
          -6 -59 -6 -70 -47 vvcurveto
          -104 -40 callsubr
          -80 279 callsubr
          278 347.02000427246094 322.99000549316406 565 393.99000549316406 -273 252 -439 vhcurveto
          hintmask 1101111110000000
          -321.99000549316406 -1317.009994506836 rmoveto
          -5 callgsubr
          -22 105 133 194 101 207 callsubr
          192 47 75 -17.020004272460938 205 callsubr
          120 callsubr
          hvcurveto
          -202.02000427246094 -60 callgsubr
          -196 -436 -116 hhcurveto
          endchar
        </CharString>
        <CharString name="atilde">
          -60 callsubr
          170.010009765625 -20 callsubr
          75.97999572753906 287 hintmask 10110010
          591.9900054931641 1472.979995727539 rmoveto
          -72 callgsubr
          315 callsubr
          179 hhcurveto
          hintmask 10100110
          116 208 callsubr
          98 98 289 callgsubr
          hvcurveto
          hintmask 10110010
          155 callsubr
          181 callgsubr
          -38.02000427246094 0 callsubr
          -59 callgsubr
          -101 -29 189 callgsubr
          -163 hhcurveto
          hintmask 10101010
          -10 callgsubr
          -140 -93.99000549316406 -89 -45.02000427246094 hvcurveto
          159 callgsubr
          -110 rlineto
          hintmask 10110010
          310 callgsubr
          48.99000549316406 -50 callsubr
          -1 rrcurveto
          320 callgsubr
          -316.99000549316406 rmoveto
          -94 callgsubr
          hintmask 01110010
          139 callsubr
          hintmask 10110010
          -45 callgsubr
          -267 -976 -96 callsubr
        </CharString>
        <CharString name="b">
          194 callgsubr
          hstemhm
          856.9799957275391 323 callgsubr
          hintmask 10110000
          72 callsubr
          hintmask 01110000
          312 callgsubr
          rlineto
          hintmask 10110000
          189 callgsubr
          32.99000549316406 rlineto
          -29 callgsubr
          5 callsubr
          99.99000549316406 129 callsubr
          80.02000427246094 147 callgsubr
          245 245 callsubr
          187 -232 hvcurveto
          -14 callgsubr
        </CharString>
        <CharString name="backslash">
          -447 -362 1958.990005493164 hstem
          15.990005493164062 798 vstem
          814 -362 rmoveto
          -222 hlineto
          -576 1958.990005493164 rlineto
          221 hlineto
          577 -1958.990005493164 rlineto
          endchar
        </CharString>
        <CharString name="bar">
          130 callsubr
          -1965.990005493164 213 1965.990005493164 -213 vlineto
          endchar
        </CharString>
        <CharString name="braceleft">
          -277 -230.99000549316406 219 callgsubr
          1632.979995727539 184 hstem
          105.97999572753906 918.9900054931641 vstem
          322.99000549316406 563 rmoveto
          0 -88 -604 -1 -29 vhcurveto
          -110 -1 47 -51 136 hhcurveto
          124.00999450683594 104 120 callsubr
          31 92 hvcurveto
          0 130 callgsubr
          111 -98 callsubr
          14.990005493164062 vhcurveto
          -275 hlineto
          93 612 221 callsubr
          51 -19.009994506835938 6 callgsubr
          -30 322 callsubr
          rlinecurve
          -29 30 44 callgsubr
          35 -59 120 callsubr
          rrcurveto
          0 146 55 29 17 vhcurveto
          53 33 98 callgsubr
          32 221 callsubr
          54 95 624.9900054931641 rcurveline
          -49 callsubr
          1 240 callsubr
          20.990005493164062 122 0 vvcurveto
          0 -194.99000549316406 52 -100 274 callsubr
          -61 -59 -198 206 callsubr
          vhcurveto
          -82 -528 244 callsubr
          -23.020004272460938 -4 callgsubr
          -60 callgsubr
          -35 -19 rlinecurve
          -52 -27 -75 -17 -65 -16 318 callsubr
          -163 rcurveline
          59 -14 63 168 callgsubr
          43 -29 rrcurveto
          98 callgsubr
          129 callsubr
          -40 callsubr
          -29 -22 vvcurveto
          endchar
        </CharString>
        <CharString name="braceright">
          -277 -228 184 1632.979995727539 188 hstem
          47.97999572753906 918.9900054931641 vstem
          750 983 rmoveto
          0 87.99000549316406 604 1 29 vhcurveto
          110 1 -47 51 -135.99000549316406 hhcurveto
          -124 -104 -31 -24 callsubr
          -92 hvcurveto
          0 -14 -111 -98 callgsubr
          -16 callgsubr
          vhcurveto
          274.97999572753906 hlineto
          -93 -611.9900054931641 -17 callgsubr
          -51.02000427246094 62 callgsubr
          13 callgsubr
          30 137 callsubr
          rlinecurve
          29 -30 78 -35 59 -24 callsubr
          rrcurveto
          0 -146 -55 -29 -17 vhcurveto
          -53 -33 -32 -32 -17 callgsubr
          -53.99000549316406 -95.00999450683594 -624.9900054931641 rcurveline
          -276 hlineto
          -47 callsubr
          -10.020004272460938 -21.020004272460938 -122 0 vvcurveto
          0 195.02000427246094 -52 100 167 136 callsubr
          59 198 32 vhcurveto
          82 528 4 23 107 callsubr
          167 callsubr
          35 19 rlinecurve
          52 27 75 17.020004272460938 65 16 24.990005493164062 163 rcurveline
          -59 128 callsubr
          -63 -40 callsubr
          6 callsubr
          29 rrcurveto
          -32 20.990005493164062 -29 callgsubr
          29 243 callsubr
          vvcurveto
          endchar
        </CharString>
        <CharString name="bracketleft">
          -447 -224.99000549316406 181.49000549316406 1634.479995727539 55 callsubr
          hstem
          154.99000549316406 746.9799957275391 vstem
          363.99000549316406 1497.990005493164 rmoveto
          -30 -227 -162 -1038.990005493164 -11 -184.02000427246094 rrcurveto
          -4 -40 -2 -35.97999572753906 -34 vvcurveto
          -110 59 -53 125.99000549316406 134 83 167 callsubr
          107 callsubr
          91 vhcurveto
          1 128 callsubr
          13 101.00999450683594 -82 callsubr
          14 99 callgsubr
          204 callsubr
          rcurveline
          289 callsubr
          1633.990005493164 rlineto
          207 callsubr
          232 callsubr
          131 rlineto
          0 -181.99000549316406 46.99000549316406 -113 -158 -59 -79 -192 -60 callgsubr
          vhcurveto
          endchar
        </CharString>
        <CharString name="bracketright">
          -447 -212.99000549316406 55 callsubr
          1634.509994506836 181.47000122070312 hstem
          13.979995727539062 747 vstem
          552 58 rmoveto
          29.990005493164062 227 162.02000427246094 1039 11 183.99000549316406 rrcurveto
          3.9900054931640625 40 2 36 34 vvcurveto
          110.02000427246094 -59 52.97999572753906 -125.99000549316406 -134 -83 -60 callgsubr
          -4 callgsubr
          188 callgsubr
          vhcurveto
          -47 callsubr
          -13.990005493164062 -13 243 callgsubr
          -2 -13.990005493164062 207 callsubr
          -1 rcurveline
          -218 -1634 rlineto
          99 callgsubr
          302 callgsubr
          51 callgsubr
          rlineto
          0 182 -47 -30 callsubr
          158 59 186 callgsubr
          192 107 callsubr
          vhcurveto
          endchar
        </CharString>
        <CharString name="breve">
          -580 1299.979995727539 214 callsubr
          1613.990005493164 60 callgsubr
          -114 -133 hhcurveto
          -122 -25 61 callgsubr
          168 callsubr
          82 callsubr
          -3 283 callsubr
          endchar
        </CharString>
        <CharString name="breve.cap">
          -582 1630.979995727539 214 callsubr
          1944.990005493164 60 callgsubr
          -113.99000549316406 -133 hhcurveto
          -122 -25 72 74 82 callsubr
          -3 283 callsubr
          endchar
        </CharString>
        <CharString name="brokenbar">
          130 callsubr
          -879 213 879 -213 vlineto
          -1087.020004272461 vmoveto
          -878.9799957275391 213 878.9799957275391 -213 vlineto
          endchar
        </CharString>
        <CharString name="bullet">
          -443 506.97999572753906 432 hstem
          232.97999572753906 427 vstem
          232.97999572753906 682.9900054931641 rmoveto
          -97 76 -36 callsubr
          100 153 98 140 120.02000427246094 99 -75 -25 callsubr
          243 callgsubr
          208 callgsubr
          -109.02000427246094 -136 -119.99000549316406 vhcurveto
          endchar
        </CharString>
        <CharString name="c">
          -41 callgsubr
          680 1155.990005493164 -96 callgsubr
        </CharString>
        <CharString name="cacute">
          -41 callgsubr
          570.9799957275391 1318.990005493164 rmoveto
          -61 callgsubr
          227 callgsubr
          rlineto
          109.02000427246094 -163 -96 callgsubr
        </CharString>
        <CharString name="caron">
          -502 1241.979995727539 417.99000549316406 hstem
          121 callgsubr
          748.0099945068359 vstem
          121 callgsubr
          1582 rmoveto
          117 callsubr
          277 callsubr
          hlineto
          343 341 273 callsubr
          49 callgsubr
          endchar
        </CharString>
        <CharString name="caron.cap">
          -504 321 callsubr
          400.02000427246094 hstem
          52.97999572753906 748.0099945068359 vstem
          52.97999572753906 -31 callsubr
          178 162 callgsubr
          endchar
        </CharString>
        <CharString name="caronvertical">
          -984 1035.979995727539 645.0200042724609 hstem
          236.99000549316406 14 callgsubr
          vstem
          195.99000549316406 1094.979995727539 rmoveto
          6 -24.990005493164062 124.99000549316406 -34.02000427246094 rlineto
          13 callsubr
          105 48.99000549316406 187 144.02000427246094 vvcurveto
          87.97999572753906 158 callgsubr
          79.00999450683594 318 callsubr
          42 vhcurveto
          -203 -47 -13.990005493164062 -37 rlineto
          -9 callsubr
          -30 8 -91 -75 vvcurveto
          -111 -19 -117 -22 -9 callgsubr
          vhcurveto
          endchar
        </CharString>
        <CharString name="ccaron">
          -41 callgsubr
          350.99000549316406 259 callsubr
          343 341 273 callsubr
          49 callgsubr
          209 callsubr
          -426 -96 callgsubr
        </CharString>
        <CharString name="ccedilla">
          -370 -466 194 260 43 -36 43 905.9799957275391 212 -40.94999694824219 40.96000671386719 268 callgsubr
          280.97999572753906 49.00999450683594 156 callgsubr
          hintmask 10110100
          537.9900054931641 186.97999572753906 rmoveto
          -123 -54 83 206 292.97999572753906 152 175 145 75.02000427246094 81.99000549316406 -52 -24 callsubr
          36 hvcurveto
          hintmask 10101100
          -32 callsubr
          255 rlineto
          hintmask 11010100
          6 callgsubr
          -58 -109.02000427246094 13 63 callgsubr
          hhcurveto
          -372 -228 -351 -367 -228.99000549316406 99 -191.02000427246094 319 callsubr
          -29.979995727539062 hvcurveto
          hintmask 10110110
          2 206 callsubr
          0 292 callsubr
          -1 -35.99000549316406 85 callgsubr
          -17 hvcurveto
          -24 callsubr
          108 callsubr
          rlineto
          108 callgsubr
          23 118.99000549316406 -16 53 hhcurveto
          184.02000427246094 104.97999572753906 87 179 65 -15 80 -19 50 hvcurveto
          142 30.979995727539062 -25 callgsubr
          88 43 61.99000549316406 -77 138.02000427246094 rcurveline
          hintmask 10110100
          -72 -71 -92 -55 -86 hhcurveto
          endchar
        </CharString>
        <CharString name="ccircumflex">
          -41 callgsubr
          246 callgsubr
          278 callsubr
          303 callgsubr
          63 callgsubr
          301 223 -3 callgsubr
          rlineto
          358.00999450683594 98 callsubr
          -96 callgsubr
        </CharString>
        <CharString name="cdotaccent">
          -370 -95 callsubr
          202.97999572753906 756.9900054931641 212 -40.94999694824219 -103 callgsubr
          197 315 268 callgsubr
          280.97999572753906 201.02000427246094 327 hintmask 11011100
          561.9900054931641 112 callgsubr
          109 callgsubr
          hhcurveto
          110.97999572753906 18 callgsubr
          118 -339.99000549316406 rmoveto
          -372 -228 -351 -367 -250 117.99000549316406 -203.97999572753906 277.00999450683594 203 133 114.97000122070312 77 53 hvcurveto
          -77 138.02000427246094 rlineto
          -72 -71 -92 -55 -86 hhcurveto
          -123 -54 83 206 292.97999572753906 152 175 145 75.02000427246094 81.99000549316406 -52 -24 callsubr
          36 hvcurveto
          hintmask 10111100
          -32 callsubr
          255 rlineto
          hintmask 11011100
          20 callsubr
        </CharString>
        <CharString name="cedilla">
          -819 -468 194 hstem
          271 callsubr
          156 callgsubr
          vstem
          329.99000549316406 34 rmoveto
          -89 138 callsubr
          7 -29 1 -65.97999572753906 -2 -57 rlinecurve
          -126 -98 callgsubr
          -75.02000427246094 -4 callgsubr
          -93 hhcurveto
          -24 callsubr
          -27.009994506835938 6 9.009994506835938 -17 hvcurveto
          -30.979995727539062 -177 rlineto
          -16 23 118.97999572753906 108 callgsubr
          53 hhcurveto
          184 104.99000549316406 87 241 callgsubr
          279 callsubr
          -24.990005493164062 109 -28 37.99000549316406 hvcurveto
          -71 4.0200042724609375 rlineto
          endchar
        </CharString>
        <CharString name="cent">
          -234 -245 431.97999572753906 -199.97999572753906 43 -43 0 callgsubr
          756.989990234375 449 -280.9600067138672 -6 callgsubr
          269 callgsubr
          281 hintmask 00000000
          hintmask 00110100
          571.9900054931641 186.97999572753906 rmoveto
          -123 -53.99000549316406 83 206 292.97999572753906 320 callsubr
          175 145.02000427246094 75 82 -52 -24 callsubr
          35.99000549316406 hvcurveto
          hintmask 01001100
          -32 callsubr
          255 -42 -9 callsubr
          -70 12 -62 5 rlinecurve
          hintmask 10010100
          57 240 rlineto
          -195 hlineto
          0 callsubr
          -252.99000549316406 rlineto
          -292 -72 -175 -309 -321 vvcurveto
          -205 186 callgsubr
          -173 181 -57 vhcurveto
          -46 -247.99000549316406 rlineto
          195 hlineto
          hintmask 01001100
          121 callgsubr
          232 171 18.979995727539062 -30 callsubr
          100 48 70 rlinecurve
          hintmask 00101100
          -77 138.02000427246094 rlineto
          hintmask 00110100
          -72 -70.99000549316406 -92.02000427246094 -55 -86 hhcurveto
          endchar
        </CharString>
        <CharString name="circumflex">
          -502 1213.990005493164 445.99000549316406 hstem
          41.97999572753906 729 vstem
          41.97999572753906 278 callsubr
          rmoveto
          275 callsubr
          63 callgsubr
          301 223 195.99000549316406 -219 124.00999450683594 68 -201 374 rlineto
          279 callgsubr
          hlineto
          -349 -374 rlineto
          endchar
        </CharString>
        <CharString name="circumflex.cap">
          -502 1660.990005493164 282 callsubr
          33.99000549316406 728.9799957275391 hintmask 00000000
          hintmask 10100000
          34 152 callsubr
          hintmask 01100000
          -30 callsubr
          -72 300.02000427246094 205 -31 callgsubr
          hintmask 10100000
          26 callsubr
          endchar
        </CharString>
        <CharString name="colon">
          -775 -26 320 488.99000549316406 320 hstemhm
          38.99000549316406 246 callgsubr
          -228.97999572753906 246 callgsubr
          hintmask 00000000
          hintmask 11010000
          314 253 callgsubr
          56 -10 callsubr
          81 112 73 74 116 69 -38 61 155 callsubr
          hvcurveto
          hintmask 11100000
          -93 -809 226 callsubr
          112 73 73.99000549316406 116 69 -37.99000549316406 61 -102 hvcurveto
          endchar
        </CharString>
        <CharString name="colonmonetary">
          89 -95 callsubr
          277 callgsubr
          -185 43 1301.979995727539 207 -53.96000671386719 -6 callgsubr
          50 callgsubr
          292 hintmask 01011000
          706.9900054931641 -346 rmoveto
          111 hlineto
          57 340 157 -9 callsubr
          117 52 63 61 rlinecurve
          -64 158 -69 -44 -72 -35 -99 -16 rlinecurve
          189 1134 88 -17 -75 callsubr
          -28 19 -18 rlinecurve
          70 221 -53 15 270 callsubr
          22 -89 14 rlinecurve
          47 281.00999450683594 rlineto
          -111 hlineto
          hintmask 10101000
          -45 -269 rlineto
          -19 -19 1 -29 callgsubr
          hhcurveto
          -21.020004272460938 129 callsubr
          -1 -1 168 callgsubr
          hvcurveto
          45.02000427246094 270.00999450683594 rlineto
          -112 hlineto
          -48 -287.00999450683594 rlineto
          -363 -82 -254 -334.99000549316406 -466 vvcurveto
          -262 -42 callsubr
          -282.00999450683594 268 -88 vhcurveto
          -60 -357.99000549316406 rlineto
          112 hlineto
          56 334 rlineto
          -2 25 167 callsubr
          -72 callgsubr
          27.009994506835938 hhcurveto
          128 callsubr
          14 0 1 13 hvcurveto
          hintmask 01011000
          -55 -331.02000427246094 rlineto
          hintmask 10101000
          240 1684.990005493164 rmoveto
          128 callsubr
          130 callgsubr
          0 -47 callsubr
          13 hvcurveto
          -193 -1159 rlineto
          -25 hlineto
          -34 -31 3.9900054931640625 9.020004272460938 -28 hvcurveto
          203 callsubr
          255 callgsubr
          5 107 callsubr
          107 callsubr
          -82 callsubr
          28 hhcurveto
          -484 -677.9900054931641 rmoveto
          6 303 103 319 callsubr
          176 -42 callsubr
          -173 -1038 rcurveline
          -83 82 -33 145 4 182 rrcurveto
          endchar
        </CharString>
        <CharString name="comma">
          -775 -509.97999572753906 43 hstem
          144.99000549316406 242.99000549316406 vstem
          53.99000549316406 293 callsubr
          -4 callsubr
        </CharString>
        <CharString name="copyright">
          809 129 callgsubr
          129 263.010009765625 184.99000549316406 612.0099945068359 181 259.989990234375 125.99000549316406 hstem
          184.99000549316406 141.99000549316406 283.00999450683594 14 callgsubr
          949.9999847412109 191 callsubr
          -384 -390 -485.99000549316406 -487 384 260 callsubr
          384.99000549316406 393.02000427246094 487 485.99000549316406 -384.99000549316406 297 callgsubr
          -419 -309 337 414 413 309 337 419 419 309 -337 -413 -414 -309 -337 -419 hvcurveto
          51 1241 rmoveto
          -324 -173 -216 -282.00999450683594 1 hvcurveto
          -252.99000549316406 247 callgsubr
          169 -227 276 hhcurveto
          133 122 45 54 63 hvcurveto
          -43.99000549316406 220 callsubr
          rlineto
          -28 -45 -85.02000427246094 -34 -106 hhcurveto
          -152.99000549316406 -108.99000549316406 103 219.02000427246094 247 callgsubr
          hvcurveto
          135 callsubr
          101.00999450683594 123 164 91 80 -4 callgsubr
          -33 48 vhcurveto
          35 184 rlineto
          243 callsubr
          -37.99000549316406 -88 34 -120.00999450683594 hhcurveto
          endchar
        </CharString>
        <CharString name="currency">
          239 251.99000549316406 178 520.989990234375 177 -33.96000671386719 -6 callgsubr
          341.99000549316406 190.99000549316406 497.99998474121094 190.99000549316406 hintmask 10111000
          1221.979995727539 689.9900054931641 rmoveto
          86 -23.990005493164062 79.00999450683594 -43 -75 callsubr
          vhcurveto
          hintmask 11011000
          200 200 -127.02000427246094 128 -198 -198 rlineto
          47.99000549316406 -70.99000549316406 -85.02000427246094 28.020004272460938 -92 hhcurveto
          -87 -82 -25 -44.02000427246094 -68 hvcurveto
          hintmask 10111000
          -203 204 -127 -128 200.99000549316406 -200.99000549316406 rlineto
          -47 -70 13 callgsubr
          -84 43 callsubr
          vvcurveto
          -92 28 -85.02000427246094 48 -70 vhcurveto
          -200 4 callsubr
          128 -127 202 202 rlineto
          -42 -32 callsubr
          80 -24 86 hhcurveto
          89 83 107 callsubr
          45 69 hvcurveto
          202 -202 128 127 -202 202 rlineto
          45 69 167 callsubr
          82 89 vvcurveto
          -440 -260 rmoveto
          -138 -111 117.99000549316406 142 hvcurveto
          hintmask 11011000
          221 callgsubr
          111 118 138 138 111 -118 -142.99000549316406 vhcurveto
          hintmask 10111000
          -142 -111 290 callgsubr
          -138 vhcurveto
          endchar
        </CharString>
        <CharString name="d">
          -83 -51 callgsubr
          -181.989990234375 43 936.9799957275391 176 -50.94999694824219 299 callgsubr
          hintmask 10101000
          928.9900054931641 138 callgsubr
          rmoveto
          hintmask 10011000
          148 callgsubr
          hintmask 10101000
          -90 callsubr
          hintmask 01101000
          15 callgsubr
          hintmask 10101000
          175 callgsubr
          -451.00999450683594 -1454 -85 callgsubr
        </CharString>
        <CharString name="dagger">
          -486 1094.979995727539 182 hstem
          290 callsubr
          751 vstem
          366.97999572753906 324 callgsubr
          rmoveto
          -97 -825 rlineto
          167 hlineto
          149 825 11 118.99000549316406 rlineto
          256 hlineto
          6 callgsubr
          182 rlineto
          -273 hlineto
          51 253 callsubr
          -274.97999572753906 hlineto
          184 callsubr
          -182 rlineto
          259.00999450683594 hlineto
          -21.009994506835938 -118.99000549316406 rlineto
          endchar
        </CharString>
        <CharString name="daggerdbl">
          -486 602.9900054931641 176 315.989990234375 182 hstem
          361.97999572753906 235.49000549316406 vstem
          291.97999572753906 424.97999572753906 rmoveto
          187 callsubr
          -475.97999572753906 rlineto
          143.99000549316406 hlineto
          109.02000427246094 481.97999572753906 14.990005493164062 172 rlineto
          239 hlineto
          24 176 rlineto
          -241 hlineto
          43 184 11 131.99000549316406 rlineto
          250 hlineto
          6 callgsubr
          182 313 callsubr
          186 callsubr
          253 callsubr
          -260 hlineto
          -4 callgsubr
          -182 rlineto
          243.02000427246094 hlineto
          184 callsubr
          -131.99000549316406 -10 -184 rlineto
          -233 hlineto
          -27 -176 rlineto
          228.99000549316406 hlineto
          -34 -178 rlineto
          endchar
        </CharString>
        <CharString name="dcaron">
          214 -51 callgsubr
          -181.989990234375 43 936.9799957275391 176 76 callsubr
          983 223 hintmask 10111000
          1533.990005493164 1665.990005493164 rmoveto
          -203 -47 -14.009994506835938 269 callsubr
          rlineto
          -40 callsubr
          -30 7.9900054931640625 188 callgsubr
          -75 vvcurveto
          -111 -18.990005493164062 -117 -22.020004272460938 44 callgsubr
          vhcurveto
          6 -25 125.00999450683594 -34 rlineto
          77 callsubr
          105 49 187 144 vvcurveto
          88 158 callgsubr
          186 callgsubr
          -25 42 vhcurveto
          -672.0099945068359 -519.9900054931641 rmoveto
          -90 callsubr
          hintmask 01111000
          15 callgsubr
          175 callgsubr
          hintmask 10111000
          148 callgsubr
          -384 -964.0099945068359 -85 callgsubr
        </CharString>
        <CharString name="dcroat">
          -83 -51 callgsubr
          -181.989990234375 43 936.9799957275391 176 -50.94999694824219 -103 callgsubr
          116 159 callsubr
          76 callsubr
          hintmask 10101100
          1312.990005493164 1391.979995727539 rmoveto
          -146 hlineto
          98 callgsubr
          244 rlineto
          175 callgsubr
          187 callsubr
          -244 rlineto
          -245 hlineto
          108 callgsubr
          98 callsubr
          rlineto
          243.02000427246094 hlineto
          hintmask 10011100
          108 callgsubr
          -116 rlineto
          hintmask 10101100
          -90 callsubr
          hintmask 01101100
          -15 -229.99000549316406 rlineto
          247 hlineto
          167 1262 rlineto
          147 hlineto
          hintmask 10101100
          16 159 callsubr
          rlineto
          -835.0099945068359 -1210 -85 callgsubr
        </CharString>
        <CharString name="degree">
          -373 934.9900054931641 320 callgsubr
          375.00999450683594 153 hstem
          174.97999572753906 172 354 171.99000549316406 vstem
          174.97999572753906 1276.990005493164 rmoveto
          -188 -98 callgsubr
          145 -153.99000549316406 195.02000427246094 hhcurveto
          204.97999572753906 153 146 195.99000549316406 -87 callsubr
          187 4.0099945068359375 -148 153 -196 hhcurveto
          -204 -151 -147 -193 -3 hvcurveto
          526 hmoveto
          217 callsubr
          -1 -76 -80.02000427246094 -104 hhcurveto
          -98 -77 85.02000427246094 102.99000549316406 2 hvcurveto
          322 callgsubr
          2 75 80 103 hhcurveto
          99 77 -83 -104 -2 hvcurveto
          endchar
        </CharString>
        <CharString name="dieresis">
          -488 1362.979995727539 151 callsubr
          6 callgsubr
          303 216 callsubr
          vstem
          6 callgsubr
          124 callgsubr
          1.9900054931640625 -10 callsubr
          64 callsubr
          104.99000549316406 64 81 94 3 hvcurveto
          71 2 136 callgsubr
          94 callsubr
          128 callgsubr
          196 callgsubr
          endchar
        </CharString>
        <CharString name="dieresis.cap">
          -490 1664 -43 callgsubr
          endchar
        </CharString>
        <CharString name="divide">
          67 197.97999572753906 319.02000427246094 157.97000122070312 210.50999450683594 155.510009765625 318.99000549316406 hstemhm
          596.9900054931641 333 266 callgsubr
          596.9900054931641 1178.990005493164 rmoveto
          -83 -4 110 callgsubr
          -10 callsubr
          83 hhcurveto
          103 86.02000427246094 -25 callsubr
          109 5 hvcurveto
          168 callsubr
          4 -40 63 -105 hhcurveto
          90 callsubr
          -85 -83 -98 -5 hvcurveto
          -337 -293 rmoveto
          -27.009994506835938 -211 rlineto
          915 hlineto
          107 callsubr
          210 -914 1 rlineto
          233 -550 rmoveto
          -83 -4.0099945068359375 59 -55 13 callsubr
          hhcurveto
          104 13 callsubr
          73.00999450683594 109 5 hvcurveto
          74 3.9900054931640625 -38.99000549316406 5 callsubr
          -105 hhcurveto
          -103.00999450683594 -83.99000549316406 -83 -98 -5 hvcurveto
          endchar
        </CharString>
        <CharString name="dollar">
          -97 -253 450 -211.99000549316406 43 -43 317 callsubr
          1133.990005493164 429.99000549316406 -259.96002197265625 -6 callgsubr
          288 callsubr
          263 233 281.97999572753906 hintmask 01001110
          734.9900054931641 862.9900054931641 rmoveto
          hintmask 01010110
          -156 115 -65 60 3 127 rrcurveto
          121 4 109 45.02000427246094 121 hhcurveto
          87 128 137 callsubr
          -10 callsubr
          54 hvcurveto
          hintmask 01001110
          86 215.99000549316406 205 callsubr
          30 -82 38.02000427246094 -127 12.990005493164062 rlinecurve
          hintmask 00110110
          182 callgsubr
          219 rlineto
          -211 hlineto
          269 callsubr
          -224 -234 -39 240 callgsubr
          -153 5 -231 rlinecurve
          4 -209 149 -135 139 -97 rrcurveto
          154.99000549316406 -107 49 -79 -100 vvcurveto
          51 callgsubr
          -111 -59 -155.02000427246094 -113.99000549316406 -134 52 45 -50 vhcurveto
          99 callsubr
          -221 37 137 callsubr
          132 -42.97999572753906 136 -13.990005493164062 rlinecurve
          hintmask 10001110
          -41 -238.02000427246094 rlineto
          210 hlineto
          41.99000549316406 242 255.02000427246094 289 callgsubr
          163.99000549316406 151 -4 261 rlinecurve
          hintmask 01001110
          -4 204 -160 316 callgsubr
          -133 71 callsubr
          rrcurveto
          endchar
        </CharString>
        <CharString name="dong">
          -81 0 219 callgsubr
          131 0 callgsubr
          545.0099945068359 183.99000549316406 114.99998474121094 159 hstem
          221 callgsubr
          264.99000549316406 475.989990234375 249.99000549316406 vstem
          628 1521.990005493164 rmoveto
          -21.009994506835938 -159 255 callsubr
          -10 -146 rlineto
          130 callgsubr
          -29 -52 17 -80.02000427246094 hhcurveto
          -318 -220 -204 -351 -239.99000549316406 151 -134 55 callsubr
          162.02000427246094 247 callsubr
          69 41 121 callsubr
          hvcurveto
          -2 -34 -6 292 callsubr
          -72 callgsubr
          vvcurveto
          -10 -1 -1 -24 18 hhcurveto
          200 hlineto
          133 1043.990005493164 rlineto
          277 callsubr
          232 callsubr
          159 rlineto
          -177 hlineto
          243 callsubr
          168 rlineto
          -250 hlineto
          -22.020004272460938 -168 rlineto
          -244.99000549316406 hlineto
          98 callgsubr
          -458 rmoveto
          97 37 -25 -12 11 hvcurveto
          -57 -449 rlineto
          -19 318 callsubr
          189 callsubr
          -40 -138 hhcurveto
          -80.02000427246094 -47 -32 callsubr
          132 203 callsubr
          66 155.02000427246094 186 hvcurveto
          -600 -876.0099945068359 rmoveto
          -24 -187.99000549316406 rlineto
          994 hlineto
          25 219 callgsubr
          rlineto
          -995 hlineto
          endchar
        </CharString>
        <CharString name="dotaccent">
          -911 1350.979995727539 315 hstem
          120 callsubr
          327 vstem
          120 callsubr
          1494 rmoveto
          211 callsubr
          70.97999572753906 80.02000427246094 71 callsubr
          118 callsubr
          153 callgsubr
          -98 -77 -59 callgsubr
          -93 -2 hvcurveto
          endchar
        </CharString>
        <CharString name="dotaccent.cap">
          -910 1653.979995727539 151 callsubr
          6 callgsubr
          210 callgsubr
          vstem
          6 callgsubr
          -22 callsubr
          72 171 callsubr
          -57 63 -97.00999450683594 hhcurveto
          -94.99000549316406 235 callsubr
          endchar
        </CharString>
        <CharString name="dotlessi">
          -677 0 -76 callgsubr
          hstem
          52 callgsubr
          433 vstem
          257.97999572753906 1140 -92 callgsubr
          endchar
        </CharString>
        <CharString name="e">
          -52 callsubr
          21 callgsubr
          699.9900054931641 1155.990005493164 -106 callgsubr
        </CharString>
        <CharString name="eacute">
          -52 callsubr
          21 callgsubr
          559.9799957275391 300 callsubr
          120.00999450683594 46.02000427246094 240.99000549316406 226.97999572753906 36 81 callgsubr
          227 callgsubr
          rlineto
          140 -163 -106 callgsubr
        </CharString>
        <CharString name="ebreve">
          -52 callsubr
          215 callgsubr
          179 callsubr
          11 84 callgsubr
          190.99998474121094 270 hintmask 00000000
          hintmask 11101100
          381.99000549316406 1615.990005493164 rmoveto
          49 callsubr
          226 160 callgsubr
          141 callgsubr
          vhcurveto
          -62 callgsubr
          318 -460 rmoveto
          hintmask 11110100
          -355 -260 -310 -408 -5 hvcurveto
          -232 -3 120.02000427246094 90 callgsubr
          296 hhcurveto
          227 50 callgsubr
          135.97999572753906 82 58 202 callsubr
          263 callsubr
          -131.99000549316406 -75 -114.02000427246094 hhcurveto
          -80 callsubr
          hintmask 11101100
          151 -97.02000427246094 105 -214 vhcurveto
          41 -282.00999450683594 rmoveto
          hintmask 11110100
          -179 -229.99000549316406 -124.99000549316406 -140 -7 vhcurveto
          158 11 92 262.97999572753906 165 hhcurveto
          hintmask 11101100
          64 37.99000549316406 -29 -81 hvcurveto
          endchar
        </CharString>
        <CharString name="ecaron">
          -52 callsubr
          21 callgsubr
          339.99000549316406 259 callsubr
          343.02000427246094 341 273 callsubr
          49 callgsubr
          360 -426 -106 callgsubr
        </CharString>
        <CharString name="ecircumflex">
          -52 callsubr
          21 callgsubr
          311.99000549316406 1 callsubr
          388 98 callsubr
          -106 callgsubr
        </CharString>
        <CharString name="edieresis">
          -52 callsubr
          207 -17 callsubr
          hstemhm
          179 callsubr
          -40 303 106.989990234375 270 -232.989990234375 303 hintmask 00000000
          hintmask 11101010
          331 132 callgsubr
          287 callsubr
          105 63 81 94 3 2 callsubr
          -68.00999450683594 -7 callsubr
          -30 callgsubr
          hintmask 11110100
          -78 -350.99000549316406 -106 callgsubr
        </CharString>
        <CharString name="edotaccent">
          -52 callsubr
          197.010009765625 315 hstemhm
          179 callsubr
          180 327 -137.010009765625 270 hintmask 00000000
          hintmask 11111000
          550.9900054931641 25 callgsubr
          hintmask 11010100
          149 -339.99000549316406 -106 callgsubr
        </CharString>
        <CharString name="egrave">
          -52 callsubr
          21 callgsubr
          265.99000549316406 73 callsubr
          434 -420.99000549316406 -106 callgsubr
        </CharString>
        <CharString name="eight">
          29 -18 175.97999572753906 1232.010009765625 169 hstemhm
          124.99000549316406 272.99000549316406 -89.00001525878906 207 callsubr
          291.00001525878906 283.99000549316406 -183.99000549316406 288 callsubr
          hintmask 00000000
          hintmask 11010100
          494 796 rmoveto
          hintmask 11101000
          -192 -71 -178 314 callsubr
          1 -225.02000427246094 rrcurveto
          -240.99000549316406 222 -128 251 309.97999572753906 241 157 266 174 -125.99000549316406 125.99000549316406 -140 103.02000427246094 vhcurveto
          hintmask 11010100
          50 callgsubr
          58.97999572753906 165 142 216 vvcurveto
          275 callgsubr
          -182 208 callsubr
          -240.99000549316406 -285 -202.02000427246094 -155 -268 321 callgsubr
          82 -103.02000427246094 103.02000427246094 -27 callgsubr
          vhcurveto
          471 407 rmoveto
          -143.02000427246094 -88 -104 -111 -59 vhcurveto
          -110 81 -82 81 110.02000427246094 vvcurveto
          124.99000549316406 186 callgsubr
          -42 callsubr
          124.00999450683594 98 -8 callgsubr
          -65 -122 vhcurveto
          hintmask 11101000
          -330.02000427246094 -1045.020004272461 rmoveto
          51 callgsubr
          -106 -42 callsubr
          134 hvcurveto
          2 149 71 callsubr
          107 113 63 rrcurveto
          148 -106 109 -100 -128.99000549316406 vvcurveto
          274 callgsubr
          -93 -88 -137 vhcurveto
          endchar
        </CharString>
        <CharString name="ellipsis">
          278 -26 320 hstemhm
          58.97999572753906 324.00999450683594 202.00001525878906 323.99000549316406 202.00999450683594 323.99000549316406 266 callgsubr
          292 callgsubr
          293.99000549316406 rmoveto
          90 callsubr
          -75 -83.00999450683594 -98 -6 hvcurveto
          -83 -5 54 55 callgsubr
          13 callsubr
          hhcurveto
          104 81 -25 callsubr
          110.02000427246094 6 hvcurveto
          74 4 -38 63 -107 hhcurveto
          526.0099945068359 hmoveto
          -102.02000427246094 -75 -83.00999450683594 -98 -6 hvcurveto
          -83 -5 54 55 callgsubr
          77 callsubr
          hhcurveto
          104 81 -25 callsubr
          110.02000427246094 6 hvcurveto
          74 4.0200042724609375 -38 63 -10 callgsubr
          hhcurveto
          525.9900054931641 hmoveto
          155 callsubr
          -75 -83.00999450683594 -98 -6 hvcurveto
          -83 -5.0200042724609375 54 55 callgsubr
          13 callsubr
          hhcurveto
          104 81 -25 callsubr
          110.02000427246094 6 hvcurveto
          74 4 -37.99000549316406 63 -107.00999450683594 hhcurveto
          endchar
        </CharString>
        <CharString name="emacron">
          -52 callsubr
          261.010009765625 12 callsubr
          21 callgsubr
          413.97999572753906 1595.990005493164 rmoveto
          -11 263 callgsubr
          11 179 rlineto
          -543 hlineto
          286 -440 -106 callgsubr
        </CharString>
        <CharString name="emdash">
          760 80 callgsubr
          1653.979995727539 248 callsubr
          1621 hlineto
          32.99000549316406 203 rlineto
          -1620.990005493164 hlineto
          endchar
        </CharString>
        <CharString name="endash">
          237 80 callgsubr
          1130.979995727539 248 callsubr
          1098 hlineto
          33 203 rlineto
          -1098 hlineto
          endchar
        </CharString>
        <CharString name="eng">
          -43 -522.9900054931641 125.99000549316406 397 43 887.9700012207031 9 callsubr
          148 callsubr
          hintmask 00000000
          hintmask 11101000
          318 callgsubr
          103 callgsubr
          -157 -147 -98 -132.02000427246094 266 callsubr
          hintmask 11011000
          16 214.02000427246094 rlineto
          -263 hlineto
          -155 -1140 -40 callgsubr
          159 callgsubr
          709 rlineto
          hintmask 11101000
          122 82 50 callsubr
          99.97999572753906 249 callgsubr
          244 callsubr
          -151 -54 -357.99000549316406 6 callsubr
          -279 rrcurveto
          -246.99000549316406 -37 -62 -183 -174 hhcurveto
          -11.020004272460938 6 callsubr
          4.0099945068359375 7.9900054931640625 -18 hvcurveto
          -37 -19 callsubr
          rlineto
          -24 22 78 -13 68 hhcurveto
          263 160 50 callsubr
          392 63 hvcurveto
          45 223 callsubr
          69 466 111 vvcurveto
          45 callgsubr
          vhcurveto
          endchar
        </CharString>
        <CharString name="eogonek">
          -219 127 callsubr
          266.0199890136719 197.97999572753906 801.9900054931641 172 hstemhm
          179 callsubr
          -56.010009765625 237.00999450683594 188.99000549316406 270 hintmask 11110100
          547.9799957275391 181.99000549316406 rmoveto
          -80 callsubr
          151 -97.02000427246094 105 -214 -355 -260 -310 -408 -5 vhcurveto
          -232 -3 120.02000427246094 90 callgsubr
          296 hhcurveto
          -9 callsubr
          19 1 -82 callsubr
          19 hvcurveto
          hintmask 11101100
          188 callgsubr
          -51 -145 -110 7 callgsubr
          165 callsubr
          130 95 49 60 62 vhcurveto
          -46 91 callgsubr
          rlineto
          -42 55 callgsubr
          -40 -13 -46.02000427246094 hhcurveto
          -24 callsubr
          -34 13 56 110 callgsubr
          151 144.02000427246094 99 81.97999572753906 hvcurveto
          69 42 51 48.99000549316406 27 38 51 callsubr
          141 rcurveline
          hintmask 11110100
          88 callgsubr
          -131.99000549316406 -75 -114.02000427246094 65 callgsubr
          endchar
        </CharString>
</ttFont>
